<?xml version="1.0" standalone="no"?>
<!DOCTYPE svg PUBLIC "-//W3C//DTD SVG 20010904//EN"
 "http://www.w3.org/TR/2001/REC-SVG-20010904/DTD/svg10.dtd">
<svg version="1.0" xmlns="http://www.w3.org/2000/svg"
 width="300.000000pt" height="75.000000pt" viewBox="0 0 300.000000 75.000000"
 preserveAspectRatio="xMidYMid meet">
<metadata>
Created by potrace 1.10, written by Peter Selinger 2001-2011
</metadata>
<g transform="translate(0.000000,75.000000) scale(0.100000,-0.100000)"
fill="#000000" stroke="none">
<path d="M599 715 c-3 -2 -21 -6 -40 -8 -18 -2 -47 -9 -64 -16 -16 -7 -61 -15
-100 -17 -91 -6 -141 -20 -188 -52 -89 -60 -115 -183 -58 -273 38 -61 69 -84
149 -109 37 -12 74 -24 82 -28 18 -7 112 -11 123 -5 4 3 3 11 -4 19 -10 12
-14 12 -26 -3 -13 -17 -14 -17 -5 1 7 14 2 31 -21 68 -29 47 -31 57 -32 148 0
54 2 97 6 94 4 -2 12 10 18 27 7 20 15 28 23 23 7 -4 10 -3 5 1 -4 5 0 20 9
34 13 22 11 21 -14 -6 -17 -17 -33 -29 -37 -25 -3 4 -3 -2 1 -12 5 -14 4 -17
-4 -12 -7 4 -13 1 -13 -8 -1 -9 -3 -31 -6 -48 -8 -64 -3 -149 13 -190 8 -24
16 -48 16 -55 1 -7 5 -10 9 -8 9 6 22 -26 13 -34 -3 -3 -14 4 -24 17 -22 26
-32 29 -23 5 6 -17 5 -16 -15 0 -11 11 -26 16 -32 12 -18 -11 -102 17 -133 44
-16 14 -33 26 -39 26 -14 0 -37 46 -38 77 0 15 -4 30 -10 33 -5 3 -10 11 -10
16 0 6 7 3 16 -5 18 -19 30 -20 40 -5 5 8 10 6 16 -5 7 -13 13 -14 29 -5 12 6
31 8 44 5 13 -3 27 -2 30 4 3 5 0 7 -8 4 -8 -3 -21 1 -28 8 -17 16 -49 22 -49
9 0 -5 6 -12 13 -14 7 -4 6 -6 -4 -6 -9 -1 -22 6 -29 14 -14 16 -34 10 -24 -7
4 -7 2 -8 -4 -4 -7 4 -12 13 -12 21 0 7 -6 15 -12 17 -10 4 -10 10 0 29 28 53
40 70 47 69 4 -1 19 9 33 23 30 27 84 57 104 57 9 0 9 -3 -2 -10 -11 -8 -9 -9
11 -5 14 4 34 8 45 10 10 2 19 4 19 5 0 1 13 4 29 6 l29 3 -34 -37 c-19 -20
-37 -39 -40 -42 -42 -37 -44 -212 -3 -291 24 -47 35 -33 12 17 -28 65 -34 148
-13 204 9 25 17 51 19 58 4 20 68 82 79 75 6 -4 7 -1 3 6 -5 8 -3 11 5 10 8
-1 31 5 51 14 50 23 70 21 33 -2 -54 -33 -114 -110 -132 -170 -13 -47 -14 -65
-4 -120 12 -66 42 -134 64 -148 7 -4 13 -17 12 -28 0 -17 7 -20 50 -23 l50 -2
-40 19 c-47 22 -70 48 -98 110 -62 139 14 326 148 360 23 6 53 8 66 6 39 -7
99 -37 93 -46 -3 -5 2 -9 10 -9 8 0 18 -5 22 -12 5 -8 2 -9 -9 -5 -14 5 -14 1
3 -31 10 -20 24 -50 31 -67 6 -16 13 -25 16 -18 2 6 -6 32 -18 57 -25 54 -19
74 7 24 21 -40 21 -141 0 -212 -8 -26 -12 -55 -8 -64 5 -15 3 -15 -10 -4 -13
10 -18 10 -24 1 -14 -24 -21 24 -7 51 22 42 14 198 -10 183 -5 -3 -7 0 -5 8 7
19 -14 58 -46 88 -14 13 -24 27 -22 30 2 3 -10 7 -27 8 -21 2 -27 0 -18 -6 7
-5 9 -11 5 -13 -5 -3 -3 -3 5 -1 18 4 63 -25 56 -37 -3 -5 0 -12 6 -15 5 -4 8
-13 5 -21 -3 -8 -2 -13 2 -13 19 3 33 -2 27 -11 -3 -5 1 -23 10 -39 17 -35 19
-90 5 -143 -8 -28 -15 -36 -28 -32 -14 5 -15 4 -2 -5 8 -5 11 -14 6 -18 -4 -4
-13 -1 -19 7 -14 18 -43 15 -72 -7 -20 -15 -20 -15 0 -8 41 16 65 17 65 5 0
-7 8 -10 20 -7 12 3 20 0 20 -8 0 -18 25 -26 40 -12 10 9 11 7 5 -10 -9 -33 2
-28 20 8 9 17 14 37 11 45 -3 8 -1 12 4 9 30 -18 32 160 3 226 -37 84 -93 127
-191 148 -59 12 -67 13 -73 6z m278 -282 c-3 -10 -5 -4 -5 12 0 17 2 24 5 18
2 -7 2 -21 0 -30z"/>
<path d="M745 640 c21 -24 26 -25 19 -6 -3 8 -13 17 -22 21 -13 5 -13 2 3 -15z"/>
<path d="M645 620 c3 -5 11 -10 16 -10 6 0 7 5 4 10 -3 6 -11 10 -16 10 -6 0
-7 -4 -4 -10z"/>
<path d="M681 627 c2 -1 13 -9 24 -17 19 -14 19 -14 6 3 -7 9 -18 17 -24 17
-6 0 -8 -1 -6 -3z"/>
<path d="M260 600 c0 -5 7 -7 15 -4 8 4 15 8 15 10 0 2 -7 4 -15 4 -8 0 -15
-4 -15 -10z"/>
<path d="M558 573 c7 -3 16 -2 19 1 4 3 -2 6 -13 5 -11 0 -14 -3 -6 -6z"/>
<path d="M338 560 c-2 -6 -11 -12 -20 -14 -29 -4 -33 -16 -5 -14 24 2 44 24
33 35 -2 2 -6 -1 -8 -7z"/>
<path d="M245 550 c-18 -7 -18 -8 -3 -15 11 -4 24 -1 33 9 18 18 5 21 -30 6z"/>
<path d="M520 549 c0 -5 4 -9 9 -9 5 0 13 -9 16 -20 3 -11 11 -20 17 -20 6 0
6 6 -2 15 -14 16 -3 20 19 6 18 -11 5 -31 -20 -31 -28 0 -23 -15 6 -16 14 -1
23 2 20 6 -3 4 2 10 10 13 10 4 12 1 8 -10 -5 -13 -2 -15 11 -10 21 8 56 -9
56 -28 0 -7 6 -16 13 -19 6 -3 -4 -4 -23 -1 -32 5 -33 4 -10 -6 14 -5 33 -8
42 -5 20 5 25 -10 6 -17 -7 -2 -1 -4 14 -4 19 0 25 3 20 12 -13 23 -61 75 -68
75 -4 0 -21 11 -39 24 -39 30 -105 58 -105 45z"/>
<path d="M751 524 c0 -11 3 -14 6 -6 3 7 2 16 -1 19 -3 4 -6 -2 -5 -13z"/>
<path d="M217 524 c-4 -4 -16 -7 -28 -8 -12 0 -25 -8 -27 -16 -4 -12 -2 -13 9
-4 8 6 23 10 35 8 13 -2 21 2 21 11 0 17 -1 18 -10 9z"/>
<path d="M298 503 c6 -2 18 -2 25 0 6 3 1 5 -13 5 -14 0 -19 -2 -12 -5z"/>
<path d="M240 489 c0 -5 5 -7 10 -4 6 3 10 8 10 11 0 2 -4 4 -10 4 -5 0 -10
-5 -10 -11z"/>
<path d="M496 469 c12 -13 20 -16 22 -9 3 7 -2 16 -9 21 -25 16 -32 9 -13 -12z"/>
<path d="M277 469 c7 -7 15 -10 18 -7 3 3 -2 9 -12 12 -14 6 -15 5 -6 -5z"/>
<path d="M547 449 c7 -7 15 -10 18 -7 3 3 -2 9 -12 12 -14 6 -15 5 -6 -5z"/>
<path d="M630 452 c0 -5 7 -9 15 -9 8 0 12 4 9 9 -3 4 -9 8 -15 8 -5 0 -9 -4
-9 -8z"/>
<path d="M320 425 c0 -8 2 -15 4 -15 2 0 6 7 10 15 3 8 1 15 -4 15 -6 0 -10
-7 -10 -15z"/>
<path d="M490 415 c0 -8 2 -15 4 -15 2 0 6 7 10 15 3 8 1 15 -4 15 -6 0 -10
-7 -10 -15z"/>
<path d="M300 411 c0 -6 4 -13 10 -16 6 -3 7 1 4 9 -7 18 -14 21 -14 7z"/>
<path d="M239 396 c17 -10 20 -15 10 -18 -8 -3 -11 -9 -7 -13 4 -4 13 -1 21 7
12 11 12 16 1 26 -7 7 -21 12 -31 12 -14 -1 -13 -3 6 -14z"/>
<path d="M550 400 c0 -5 -9 -10 -19 -10 -11 0 -22 -6 -24 -12 -4 -10 -8 -10
-15 1 -6 8 -12 9 -16 3 -11 -18 22 -21 53 -6 26 13 42 34 26 34 -3 0 -5 -4 -5
-10z"/>
<path d="M565 380 c-3 -5 -1 -10 4 -10 6 0 11 5 11 10 0 6 -2 10 -4 10 -3 0
-8 -4 -11 -10z"/>
<path d="M646 377 c3 -10 9 -15 12 -12 3 3 0 11 -7 18 -10 9 -11 8 -5 -6z"/>
<path d="M705 370 c-3 -5 -1 -10 4 -10 6 0 11 5 11 10 0 6 -2 10 -4 10 -3 0
-8 -4 -11 -10z"/>
<path d="M739 372 c9 -7 10 -11 2 -15 -7 -4 -8 -5 0 -4 15 3 13 21 -3 25 -10
3 -10 2 1 -6z"/>
<path d="M175 360 c3 -5 11 -10 16 -10 6 0 7 5 4 10 -3 6 -11 10 -16 10 -6 0
-7 -4 -4 -10z"/>
<path d="M275 361 c-3 -5 -1 -12 5 -16 5 -3 10 1 10 9 0 18 -6 21 -15 7z"/>
<path d="M310 343 c0 -28 13 -43 25 -29 7 8 5 16 -7 29 -17 16 -18 16 -18 0z"/>
<path d="M528 353 c6 -2 18 -2 25 0 6 3 1 5 -13 5 -14 0 -19 -2 -12 -5z"/>
<path d="M608 343 c6 -2 18 -2 25 0 6 3 1 5 -13 5 -14 0 -19 -2 -12 -5z"/>
<path d="M230 335 c0 -5 5 -17 10 -25 5 -8 10 -10 10 -5 0 6 -5 17 -10 25 -5
8 -10 11 -10 5z"/>
<path d="M536 327 c3 -10 9 -15 12 -12 3 3 0 11 -7 18 -10 9 -11 8 -5 -6z"/>
<path d="M565 330 c-3 -5 -2 -10 4 -10 5 0 13 5 16 10 3 6 2 10 -4 10 -5 0
-13 -4 -16 -10z"/>
<path d="M610 320 c0 -5 -7 -7 -15 -4 -8 4 -15 1 -15 -5 0 -6 9 -11 20 -11 11
0 20 7 20 15 0 8 -2 15 -5 15 -3 0 -5 -4 -5 -10z"/>
<path d="M633 306 c3 -8 -1 -20 -9 -26 -11 -10 -14 -10 -14 -1 0 7 -5 9 -11 5
-8 -4 -7 -9 2 -15 7 -4 19 -3 25 2 8 6 14 5 17 -6 4 -8 12 -12 20 -9 8 3 20
-2 27 -10 10 -13 9 -17 -11 -25 -26 -9 -43 -5 -34 9 3 4 -1 10 -8 13 -7 3 -13
-5 -13 -19 -2 -22 1 -23 30 -18 17 4 36 7 43 7 7 0 10 4 7 9 -3 4 0 8 5 8 6 0
11 8 11 18 0 13 -2 14 -9 3 -7 -10 -12 -8 -24 9 -10 15 -17 18 -22 10 -10 -17
-24 7 -20 32 2 10 -1 18 -7 18 -5 0 -8 -6 -5 -14z"/>
<path d="M690 286 c0 -9 3 -15 8 -14 4 1 18 -2 31 -6 14 -5 27 -4 35 4 8 8 7
10 -6 5 -9 -4 -28 1 -42 10 -24 16 -26 16 -26 1z"/>
<path d="M560 280 c-9 -6 -10 -10 -3 -10 6 0 15 5 18 10 8 12 4 12 -15 0z"/>
<path d="M855 272 c-3 -3 0 -11 6 -19 9 -10 7 -13 -7 -14 -11 -1 -23 -1 -27 0
-5 1 -6 -3 -2 -8 8 -13 51 3 48 18 -4 14 14 15 22 1 3 -5 20 -7 38 -5 18 3 26
3 20 -1 -7 -3 -13 -13 -13 -21 0 -12 5 -10 20 7 11 13 20 18 20 13 0 -17 51
-23 57 -7 4 11 9 12 19 3 7 -6 23 -9 36 -8 39 4 158 -12 158 -22 0 -5 -7 -9
-15 -9 -8 0 -15 -5 -15 -11 0 -5 5 -7 10 -4 6 3 10 -1 10 -9 0 -9 4 -16 9 -16
5 0 7 10 4 23 -3 14 -2 18 4 10 10 -14 53 -6 53 11 0 6 5 4 10 -4 7 -12 10
-12 10 -1 0 9 6 11 18 6 9 -4 24 -8 32 -8 8 0 18 -5 23 -11 5 -8 10 -6 17 4 7
12 10 12 10 1 0 -9 8 -11 28 -7 20 5 23 4 12 -4 -8 -5 -24 -10 -35 -11 -13 -1
-9 -4 10 -8 17 -4 33 -2 37 3 4 6 9 8 13 5 12 -12 -40 -54 -63 -51 -13 2 -29
-1 -36 -7 -8 -7 -20 -6 -37 3 -13 7 -31 10 -38 8 -8 -3 -11 0 -8 6 4 5 0 15
-8 22 -14 11 -14 10 -7 -11 13 -35 4 -55 -14 -32 -13 17 -14 17 -8 1 3 -10 1
-18 -5 -18 -6 0 -11 8 -11 19 0 11 -9 21 -21 24 -12 3 -19 3 -16 0 3 -2 -2
-13 -11 -22 -15 -15 -20 -16 -37 -4 -23 15 -69 18 -60 3 3 -6 -1 -7 -9 -4 -20
8 -13 19 24 37 21 11 30 12 34 3 3 -8 5 -8 5 0 1 14 -77 69 -86 61 -3 -4 3
-10 13 -14 21 -8 44 -28 44 -38 0 -4 -7 -4 -16 -1 -10 4 -21 -4 -32 -24 -13
-23 -24 -30 -47 -30 -25 1 -27 2 -12 11 9 5 22 7 27 4 6 -3 10 -1 10 4 0 19
-38 12 -54 -10 -10 -15 -20 -19 -36 -14 -16 5 -21 3 -18 -6 6 -17 68 -23 68
-8 0 8 4 8 13 0 8 -6 16 -8 20 -5 7 8 327 11 327 3 0 -4 24 -2 53 3 28 6 115
8 192 5 157 -5 236 2 243 20 2 8 -5 12 -20 11 -13 -1 -52 7 -88 17 -64 17
-126 32 -165 39 -11 2 -54 11 -95 20 -41 9 -93 19 -115 22 -22 3 -51 8 -65 10
-14 3 -47 7 -73 9 -27 3 -53 7 -58 10 -5 3 -59 8 -121 11 -62 3 -129 8 -148
11 -53 9 -70 10 -75 5z m445 -61 c0 -11 -26 -22 -34 -14 -12 12 -5 23 14 23
11 0 20 -4 20 -9z m264 -50 c3 -5 19 -8 36 -7 20 1 37 -5 52 -21 24 -25 18
-45 -6 -20 -8 8 -13 17 -10 20 3 3 0 8 -7 13 -7 4 -10 3 -6 -2 3 -6 2 -16 -3
-24 -7 -12 -12 -12 -28 3 -10 9 -26 17 -34 17 -9 0 -19 6 -21 13 -4 9 -8 8
-16 -3 -8 -11 -5 -18 12 -28 20 -11 20 -12 2 -10 -11 2 -23 8 -27 13 -4 6 -8
1 -8 -10 0 -16 -2 -17 -9 -6 -6 9 -4 19 5 28 8 8 14 19 14 24 0 12 47 12 54 0z
m123 -24 c4 -7 19 -13 32 -12 13 0 25 -6 27 -13 1 -7 0 -8 -3 -2 -8 16 -23 12
-24 -7 0 -17 -1 -17 -8 0 -4 10 -11 19 -16 19 -18 1 -35 10 -35 19 0 13 18 11
27 -4z m-347 -37 c13 -8 13 -10 -2 -10 -9 0 -20 5 -23 10 -8 13 5 13 25 0z"/>
<path d="M570 258 c0 -2 9 -11 20 -21 11 -9 20 -13 20 -7 0 5 -9 14 -20 20
-11 6 -20 9 -20 8z"/>
<path d="M780 249 c0 -5 5 -7 10 -4 6 3 10 8 10 11 0 2 -4 4 -10 4 -5 0 -10
-5 -10 -11z"/>
<path d="M735 239 c-4 -6 -5 -12 -2 -15 2 -3 7 2 10 11 7 17 1 20 -8 4z"/>
<path d="M872 206 c7 -8 15 -12 17 -11 5 6 -10 25 -20 25 -5 0 -4 -6 3 -14z"/>
<path d="M1158 213 c7 -3 16 -2 19 1 4 3 -2 6 -13 5 -11 0 -14 -3 -6 -6z"/>
<path d="M811 192 c-7 -14 -6 -19 4 -19 7 0 11 7 7 15 -3 10 -1 13 6 8 7 -4
12 -2 12 3 0 17 -18 13 -29 -7z"/>
<path d="M976 195 c5 -11 2 -13 -10 -9 -12 5 -15 2 -10 -9 3 -9 12 -13 20 -10
16 6 20 43 4 43 -5 0 -7 -7 -4 -15z"/>
<path d="M374 192 c2 -4 -3 -8 -12 -9 -23 -2 -74 -13 -92 -20 -8 -4 -18 -6
-21 -5 -4 1 -14 -6 -22 -16 -13 -15 -14 -20 -1 -36 14 -20 19 -12 14 24 -1 8
1 12 6 8 4 -4 13 -3 20 2 17 15 54 21 54 9 0 -5 -8 -9 -17 -9 -15 0 -15 -2 -4
-9 10 -7 20 -2 33 15 11 13 28 24 39 24 10 0 19 7 19 15 0 8 -5 15 -11 15 -5
0 -8 -4 -5 -8z"/>
<path d="M728 193 c7 -3 16 -2 19 1 4 3 -2 6 -13 5 -11 0 -14 -3 -6 -6z"/>
<path d="M771 191 c-8 -6 -9 -11 -3 -15 6 -3 14 -1 17 5 9 14 2 20 -14 10z"/>
<path d="M1005 191 c-3 -5 0 -13 6 -17 8 -5 9 -3 4 6 -8 13 0 13 50 -5 13 -4
12 -1 -5 9 -29 18 -46 20 -55 7z"/>
<path d="M640 178 c0 -4 7 -8 15 -8 8 0 15 4 15 8 0 5 -7 9 -15 9 -8 0 -15 -4
-15 -9z"/>
<path d="M850 180 c-9 -6 -10 -10 -3 -10 6 0 15 5 18 10 8 12 4 12 -15 0z"/>
<path d="M910 170 c-6 -11 -7 -20 -2 -20 6 0 12 9 15 20 3 11 3 20 1 20 -2 0
-8 -9 -14 -20z"/>
<path d="M1196 177 c3 -10 9 -15 12 -12 3 3 0 11 -7 18 -10 9 -11 8 -5 -6z"/>
<path d="M1342 178 c2 -6 10 -14 16 -16 7 -2 10 2 6 12 -7 18 -28 22 -22 4z"/>
<path d="M445 170 c3 -5 16 -15 28 -21 l22 -11 -22 21 c-23 22 -39 28 -28 11z"/>
<path d="M515 161 c-3 -5 4 -12 15 -16 11 -4 18 -11 15 -16 -4 -5 -1 -9 4 -9
17 0 13 20 -5 27 -13 5 -13 7 -2 14 10 7 9 9 -4 9 -9 0 -19 -4 -23 -9z"/>
<path d="M1385 149 c4 -12 3 -19 -2 -16 -5 3 -15 2 -22 -2 -9 -6 -7 -10 8 -14
12 -3 22 -2 22 1 6 30 5 52 -3 52 -5 0 -6 -10 -3 -21z"/>
<path d="M628 153 c6 -2 12 -11 12 -19 0 -8 6 -11 15 -8 8 4 15 1 15 -5 0 -6
-8 -11 -17 -12 -15 -1 -15 -2 2 -8 48 -17 95 -42 95 -50 0 -6 -12 -6 -27 -2
-16 4 -40 6 -55 4 -14 -2 -29 1 -33 7 -3 5 -11 10 -17 10 -7 0 -7 -4 1 -13 8
-10 7 -14 -4 -14 -8 0 -15 4 -15 9 0 5 -4 7 -8 4 -14 -8 -54 25 -48 40 3 8 0
11 -10 7 -11 -4 -12 -9 -5 -16 13 -13 15 -30 2 -23 -5 3 -11 -1 -15 -9 -6 -17
9 -21 19 -5 3 6 11 10 18 10 7 0 5 -7 -5 -16 -17 -17 -54 -12 -43 6 3 5 2 10
-4 10 -5 0 -18 3 -28 6 -15 5 -15 4 -3 -5 12 -8 8 -10 -18 -8 -26 2 -32 6 -28
20 2 9 0 17 -5 17 -5 0 -9 -9 -9 -20 0 -11 -5 -20 -12 -20 -6 0 -8 -3 -5 -6
16 -17 133 -19 387 -10 112 5 137 8 147 23 8 10 13 12 13 4 0 -7 5 -9 11 -5 8
5 6 10 -5 16 -13 7 -23 5 -38 -9 -20 -18 -21 -18 -14 7 3 14 3 19 0 13 -3 -7
-12 -13 -20 -13 -9 0 -13 -5 -9 -12 4 -7 -1 -4 -9 6 -9 11 -12 24 -8 30 5 6
-2 20 -15 33 -17 17 -23 19 -23 7 0 -8 6 -17 13 -20 20 -7 14 -44 -9 -57 -40
-23 -58 -16 -26 10 16 13 16 14 -3 5 -14 -8 -28 -6 -50 6 -16 9 -34 16 -40 17
-15 0 -18 35 -3 35 7 1 -5 7 -27 15 -37 14 -66 20 -37 8z"/>
<path d="M725 152 c-12 -13 -3 -23 10 -12 14 12 19 7 16 -13 -1 -5 3 -6 9 -2
6 3 8 10 5 15 -3 5 5 10 17 13 13 2 6 4 -14 4 -21 0 -40 -3 -43 -5z"/>
<path d="M943 145 c0 -8 4 -15 9 -15 4 0 8 4 8 9 0 6 -4 12 -8 15 -5 3 -9 -1
-9 -9z"/>
<path d="M982 148 c-16 -16 -15 -28 2 -28 19 0 27 13 17 28 -5 9 -10 9 -19 0z"/>
<path d="M1040 155 c0 -7 30 -13 34 -7 3 4 -4 9 -15 9 -10 1 -19 0 -19 -2z"/>
<path d="M350 140 c0 -5 5 -10 11 -10 5 0 7 5 4 10 -3 6 -8 10 -11 10 -2 0 -4
-4 -4 -10z"/>
<path d="M435 139 c-4 -6 -13 -8 -21 -5 -17 6 -19 -20 -2 -30 7 -4 8 -3 4 4
-7 12 5 16 31 13 8 -1 10 5 7 14 -7 18 -11 19 -19 4z"/>
<path d="M1260 139 c0 -5 5 -7 10 -4 6 3 10 8 10 11 0 2 -4 4 -10 4 -5 0 -10
-5 -10 -11z"/>
<path d="M594 131 c4 -5 1 -11 -6 -13 -7 -3 -3 -7 10 -10 19 -5 20 -4 11 13
-5 10 -12 19 -15 19 -3 0 -3 -4 0 -9z"/>
<path d="M898 133 c7 -3 16 -2 19 1 4 3 -2 6 -13 5 -11 0 -14 -3 -6 -6z"/>
<path d="M260 121 c0 -6 8 -15 18 -21 15 -9 14 -10 -5 -5 -16 4 -23 2 -23 -7
0 -7 13 -14 32 -15 17 -1 34 -6 37 -11 3 -5 18 -12 34 -16 20 -5 27 -3 27 9 0
8 5 15 10 15 6 0 10 8 10 18 0 10 -3 13 -8 6 -4 -6 -18 -15 -32 -19 -23 -7
-24 -7 -10 10 14 17 13 18 -2 12 -10 -3 -18 -2 -18 3 0 6 -4 10 -10 10 -5 0
-7 -7 -4 -15 4 -8 1 -15 -5 -15 -6 0 -11 7 -11 15 0 8 -9 19 -20 25 -13 7 -20
7 -20 1z"/>
<path d="M356 106 c21 -15 30 -14 19 3 -3 6 -14 11 -23 11 -13 0 -13 -2 4 -14z"/>
<path d="M718 113 c7 -3 16 -2 19 1 4 3 -2 6 -13 5 -11 0 -14 -3 -6 -6z"/>
<path d="M760 110 c-11 -7 -11 -10 -2 -10 7 0 10 -4 7 -10 -3 -5 -2 -10 4 -10
5 0 13 5 16 10 3 6 0 10 -7 10 -9 0 -9 3 2 10 8 5 11 10 5 10 -5 0 -17 -5 -25
-10z"/>
<path d="M876 105 c-9 -26 -7 -32 5 -12 6 10 9 21 6 23 -2 3 -7 -2 -11 -11z"/>
<path d="M905 110 c3 -5 16 -10 28 -9 21 0 21 1 2 9 -28 12 -37 12 -30 0z"/>
<path d="M800 100 c0 -5 5 -10 11 -10 5 0 7 5 4 10 -3 6 -8 10 -11 10 -2 0 -4
-4 -4 -10z"/>
<path d="M570 92 c0 -4 9 -8 20 -9 11 -1 18 2 15 8 -7 11 -35 12 -35 1z"/>
<path d="M445 80 c-3 -6 1 -7 9 -4 18 7 21 14 7 14 -6 0 -13 -4 -16 -10z"/>
<path d="M640 70 c0 -5 5 -10 10 -10 6 0 10 5 10 10 0 6 -4 10 -10 10 -5 0
-10 -4 -10 -10z"/>
</g>
</svg>
