<?xml version="1.0" standalone="no"?>
<!DOCTYPE svg PUBLIC "-//W3C//DTD SVG 20010904//EN"
 "http://www.w3.org/TR/2001/REC-SVG-20010904/DTD/svg10.dtd">
<svg version="1.0" xmlns="http://www.w3.org/2000/svg"
 width="300.000000pt" height="300.000000pt" viewBox="0 0 300.000000 300.000000"
 preserveAspectRatio="xMidYMid meet">
<metadata>
Created by potrace 1.10, written by Peter Selinger 2001-2011
</metadata>
<g transform="translate(0.000000,300.000000) scale(0.100000,-0.100000)"
fill="#000000" stroke="none">
<path d="M1230 2786 c0 -7 18 -32 40 -55 23 -23 38 -46 34 -52 -8 -14 26 -38
54 -39 16 0 22 -5 20 -17 -3 -16 5 -18 62 -16 36 1 79 2 96 2 38 1 101 48 85
64 -6 6 -4 15 9 26 18 16 35 101 19 101 -4 0 -26 -9 -49 -21 -47 -24 -90 -72
-90 -100 0 -26 18 -24 25 4 6 22 71 75 81 65 12 -12 -22 -87 -44 -97 -37 -17
-49 -13 -78 24 -15 19 -32 34 -38 33 -7 -2 -26 13 -44 32 -24 26 -34 32 -40
22 -7 -10 -18 -7 -53 13 -49 27 -89 33 -89 11z m93 -43 c18 -9 38 -16 45 -14
7 1 26 -9 43 -23 17 -15 36 -26 43 -26 17 0 50 -37 39 -43 -4 -3 -24 -8 -44
-12 -26 -5 -39 -2 -49 10 -7 9 -26 23 -42 31 -15 8 -28 20 -28 26 0 7 -12 25
-27 40 -31 32 -25 35 20 11z"/>
<path d="M1443 2753 c9 -2 25 -2 35 0 9 3 1 5 -18 5 -19 0 -27 -2 -17 -5z"/>
<path d="M1181 2636 c-30 -30 -48 -56 -43 -60 6 -3 13 -2 17 4 3 5 3 10 -2 10
-4 0 15 23 42 50 27 28 47 50 44 50 -2 0 -29 -24 -58 -54z"/>
<path d="M1660 2681 c0 -5 7 -12 16 -15 14 -5 15 -4 4 9 -14 17 -20 19 -20 6z"/>
<path d="M1737 2612 c25 -8 55 -32 129 -104 43 -42 55 -48 70 -40 18 10 18 11
2 17 -10 4 -16 11 -13 15 3 5 0 12 -6 16 -6 3 -15 0 -20 -7 -6 -11 -9 -10 -15
4 -3 9 -12 17 -20 17 -8 0 -14 5 -14 11 0 12 -25 39 -37 39 -4 0 -19 9 -33 20
-14 11 -34 19 -45 19 -18 -1 -18 -2 2 -7z"/>
<path d="M1855 2589 c-7 -11 31 -59 47 -59 12 0 10 44 -4 58 -15 15 -35 15
-43 1z"/>
<path d="M1040 2570 c0 -5 5 -10 10 -10 6 0 10 5 10 10 0 6 -4 10 -10 10 -5 0
-10 -4 -10 -10z"/>
<path d="M1099 2543 l-24 -28 28 24 c25 23 32 31 24 31 -2 0 -14 -12 -28 -27z"/>
<path d="M1354 2516 c-14 -43 -15 -58 -5 -69 14 -17 86 -37 135 -37 30 0 36 4
44 33 18 57 21 82 14 94 -12 19 -60 33 -117 33 l-54 0 -17 -54z m137 18 c5 -3
5 -13 -1 -24 -13 -24 -13 -63 0 -55 6 3 10 16 10 29 0 12 6 31 14 41 12 17 13
13 4 -33 l-11 -52 -62 0 c-67 0 -75 6 -75 55 0 38 26 56 72 50 22 -3 44 -8 49
-11z"/>
<path d="M1674 2545 c-10 -16 -14 -34 -9 -54 7 -35 36 -64 42 -43 3 6 9 12 14
12 6 0 7 -5 3 -11 -4 -7 2 -9 17 -7 15 2 31 16 43 39 19 35 19 38 3 63 -24 37
-89 37 -113 1z m86 -10 c7 -9 10 -25 6 -40 -6 -22 -11 -26 -39 -23 -25 2 -33
8 -35 26 -7 44 41 70 68 37z"/>
<path d="M1050 2503 c-51 -19 -66 -77 -30 -113 51 -51 139 8 109 74 -9 19 -51
50 -62 45 -1 0 -9 -3 -17 -6z m47 -38 c19 -13 21 -19 11 -39 -11 -25 -40 -38
-63 -30 -20 8 -24 51 -6 68 19 20 31 20 58 1z"/>
<path d="M1920 2431 l-35 -29 33 -64 c54 -104 59 -108 117 -97 54 10 80 6 69
-12 -4 -8 -3 -9 4 -5 9 5 7 14 -5 31 -11 14 -22 20 -29 14 -6 -4 -26 -10 -44
-11 -31 -3 -37 2 -71 52 -21 30 -38 67 -38 83 -2 59 38 13 66 -78 17 -54 18
-55 48 -49 16 3 32 8 34 10 8 8 -12 92 -32 134 -29 59 -65 65 -117 21z m95
-10 c8 -20 4 -20 -35 1 l-35 17 32 -1 c18 -1 35 -9 38 -17z m17 -68 c3 -10 7
-30 7 -44 1 -43 -26 -30 -40 18 -6 24 -16 46 -20 49 -5 3 -9 9 -9 14 0 15 54
-18 62 -37z"/>
<path d="M956 2372 l-19 -27 24 22 c12 12 21 24 18 27 -2 2 -13 -8 -23 -22z"/>
<path d="M1220 2340 l-135 -45 -3 -48 c-2 -33 1 -49 11 -53 8 -3 68 11 133 32
65 20 128 39 139 42 40 10 65 52 31 52 -8 0 -17 13 -21 30 -4 16 -10 31 -13
33 -4 1 -68 -18 -142 -43z m140 -32 c0 -10 -11 -19 -29 -23 -16 -3 -70 -19
-121 -36 -51 -16 -94 -29 -96 -29 -10 0 -3 49 9 58 6 6 39 18 72 27 33 9 80
22 105 29 47 13 60 8 60 -26z"/>
<path d="M916 2321 c-10 -11 -16 -25 -15 -30 2 -6 12 3 21 19 20 35 18 38 -6
11z"/>
<path d="M1654 2305 c-3 -19 -11 -38 -17 -42 -5 -3 19 -17 54 -30 35 -13 101
-40 147 -60 47 -20 87 -32 92 -27 4 5 11 28 15 50 6 42 6 42 -32 54 -21 7 -82
30 -136 51 -53 22 -102 39 -107 39 -5 0 -12 -16 -16 -35z m181 -55 c10 -7 66
-24 75 -22 10 1 7 -43 -3 -49 -5 -4 -36 6 -68 22 -32 16 -65 29 -73 29 -8 0
-18 5 -21 10 -3 6 -14 10 -24 10 -27 0 -55 25 -48 43 6 15 14 14 79 -9 40 -15
78 -30 83 -34z"/>
<path d="M1627 2313 c-11 -10 -8 -43 3 -43 6 0 10 11 10 25 0 26 -2 29 -13 18z"/>
<path d="M859 2248 c-46 -61 -50 -68 -42 -68 4 0 16 12 25 28 10 15 25 37 34
50 9 12 14 22 12 22 -2 0 -15 -14 -29 -32z"/>
<path d="M2141 2196 c9 -12 29 -39 43 -60 14 -21 26 -33 26 -25 0 8 -19 34
-43 60 -23 25 -35 36 -26 25z"/>
<path d="M1392 2177 c20 -17 41 -41 47 -52 8 -15 10 -16 11 -5 0 17 -70 90
-85 90 -6 0 6 -15 27 -33z"/>
<path d="M774 2133 c-15 -20 -23 -33 -16 -29 13 8 56 66 49 66 -3 0 -17 -17
-33 -37z"/>
<path d="M1163 2148 c-19 -30 -31 -58 -23 -53 5 3 15 19 24 35 15 30 14 41 -1
18z"/>
<path d="M1693 2143 c9 -2 25 -2 35 0 9 3 1 5 -18 5 -19 0 -27 -2 -17 -5z"/>
<path d="M1758 2143 c7 -3 16 -2 19 1 4 3 -2 6 -13 5 -11 0 -14 -3 -6 -6z"/>
<path d="M1390 2126 c0 -8 5 -18 10 -21 6 -3 10 1 10 9 0 8 -4 18 -10 21 -5 3
-10 -1 -10 -9z"/>
<path d="M1920 2111 c0 -6 4 -13 10 -16 6 -3 7 1 4 9 -7 18 -14 21 -14 7z"/>
<path d="M1606 2084 c-4 -9 -4 -19 -1 -22 2 -3 7 3 11 12 4 9 4 19 1 22 -2 3
-7 -3 -11 -12z"/>
<path d="M730 2075 c-7 -8 -9 -15 -6 -15 4 0 14 7 22 15 9 8 11 15 6 15 -5 0
-15 -7 -22 -15z"/>
<path d="M1435 2045 c5 -41 2 -58 -17 -95 -80 -148 -285 -87 -289 85 -1 46 -1
48 -11 22 -20 -57 23 -156 85 -192 39 -23 127 -24 161 -2 50 33 80 85 84 149
3 38 0 64 -7 71 -10 9 -11 1 -6 -38z"/>
<path d="M831 2042 c-12 -17 -21 -36 -21 -43 0 -6 -10 -26 -23 -43 -37 -49
-42 -63 -15 -38 28 25 93 140 85 148 -3 3 -14 -8 -26 -24z"/>
<path d="M1941 2025 c-2 -61 -33 -120 -80 -152 -69 -46 -179 -22 -219 47 -15
27 -32 39 -32 24 0 -36 85 -107 142 -119 115 -26 244 124 198 230 -6 15 -9 7
-9 -30z"/>
<path d="M2241 2057 c9 -7 28 -30 43 -51 14 -21 26 -33 26 -26 0 17 -59 90
-73 90 -7 0 -5 -6 4 -13z"/>
<path d="M689 2018 c-20 -29 -21 -31 -3 -15 12 9 23 15 25 12 3 -2 5 5 5 15 0
26 -1 26 -27 -12z"/>
<path d="M1253 2033 c-24 -16 -31 -43 -12 -43 6 0 17 7 25 15 20 20 63 19 86
-2 15 -13 21 -14 31 -4 9 9 7 16 -13 31 -30 24 -86 25 -117 3z"/>
<path d="M1601 2034 c0 -11 3 -14 6 -6 3 7 2 16 -1 19 -3 4 -6 -2 -5 -13z"/>
<path d="M1672 2034 c-12 -8 -22 -22 -22 -30 0 -18 10 -17 34 1 26 20 65 19
88 -2 13 -11 22 -13 29 -6 16 16 -37 53 -75 53 -17 0 -42 -7 -54 -16z"/>
<path d="M1603 1988 c1 -16 5 -28 9 -28 10 0 9 9 -2 35 -8 17 -8 16 -7 -7z"/>
<path d="M649 1963 c-13 -16 -12 -17 4 -4 9 7 17 15 17 17 0 8 -8 3 -21 -13z"/>
<path d="M2329 1952 c5 -10 18 -25 27 -33 11 -9 9 -2 -6 19 -26 35 -36 42 -21
14z"/>
<path d="M625 1929 c-4 -6 -5 -12 -2 -15 2 -3 7 2 10 11 7 17 1 20 -8 4z"/>
<path d="M697 1922 c-18 -20 -22 -59 -8 -80 5 -9 15 2 33 37 20 41 22 51 10
56 -18 7 -17 7 -35 -13z"/>
<path d="M161 1894 c0 -11 3 -14 6 -6 3 7 2 16 -1 19 -3 4 -6 -2 -5 -13z"/>
<path d="M2370 1896 c0 -2 8 -10 18 -17 15 -13 16 -12 3 4 -13 16 -21 21 -21
13z"/>
<path d="M579 1863 c-13 -16 -12 -17 4 -4 9 7 17 15 17 17 0 8 -8 3 -21 -13z"/>
<path d="M1475 1861 c-70 -18 -135 -68 -135 -103 0 -23 11 -23 43 2 32 26 35
25 29 -5 -6 -34 11 -32 41 5 14 17 28 30 31 30 3 0 6 -13 6 -30 0 -37 12 -38
38 -3 l19 26 7 -26 c7 -30 24 -36 31 -12 16 52 16 51 31 23 18 -34 44 -37 44
-6 0 21 1 21 30 -7 27 -26 30 -27 36 -10 26 68 -140 145 -251 116z m150 -36
c36 -14 45 -30 23 -38 -7 -2 -18 3 -24 11 -8 12 -15 12 -33 3 -12 -7 -30 -9
-41 -6 -10 3 -21 1 -25 -5 -5 -8 -13 -6 -26 6 -17 15 -20 15 -43 1 -13 -9 -26
-13 -30 -10 -38 39 124 70 199 38z"/>
<path d="M2406 1850 c15 -28 136 -190 141 -190 5 0 -22 39 -86 125 -47 64 -70
90 -55 65z"/>
<path d="M550 1825 c-7 -9 -8 -15 -2 -15 5 0 12 7 16 15 3 8 4 15 2 15 -2 0
-9 -7 -16 -15z"/>
<path d="M525 1789 c-4 -6 -5 -12 -2 -15 2 -3 7 2 10 11 7 17 1 20 -8 4z"/>
<path d="M480 1725 c-7 -9 -8 -15 -2 -15 5 0 12 7 16 15 3 8 4 15 2 15 -2 0
-9 -7 -16 -15z"/>
<path d="M455 1689 c-4 -6 -5 -12 -2 -15 2 -3 7 2 10 11 7 17 1 20 -8 4z"/>
<path d="M2205 1685 c-5 -2 -27 -6 -48 -10 -23 -4 -43 -15 -53 -30 -14 -22
-13 -28 10 -87 31 -77 31 -78 7 -78 -22 0 -51 -35 -51 -61 0 -23 33 -49 63
-49 34 0 63 49 47 80 -6 11 -14 20 -19 20 -5 0 -6 10 -4 23 2 12 -5 44 -16 70
-12 27 -21 55 -21 62 0 17 51 32 88 26 10 -1 42 -67 42 -86 0 -7 -6 -15 -12
-18 -7 -2 -2 -2 12 0 16 3 22 1 15 -5 -23 -23 -54 -17 -84 17 -17 19 -31 39
-31 44 0 6 -3 8 -6 5 -8 -9 23 -78 35 -78 6 0 11 -7 11 -15 0 -12 8 -14 43 -9
56 9 76 27 53 49 -9 9 -16 22 -16 28 0 13 -37 87 -49 98 -3 4 -10 5 -16 4z
m-77 -237 c-2 -6 -10 -14 -16 -16 -7 -2 -10 2 -6 12 7 18 28 22 22 4z m32 -22
c0 -7 -6 -19 -14 -25 -15 -12 -46 -5 -46 11 0 5 4 7 9 3 6 -3 16 1 23 9 16 19
28 20 28 2z"/>
<path d="M1410 1675 c0 -17 33 -66 56 -84 30 -24 109 -30 102 -9 -5 15 -37 17
-55 4 -19 -13 -16 19 3 38 8 9 19 16 23 16 12 0 41 -35 41 -48 0 -32 51 14 69
61 l11 27 -125 0 c-69 0 -125 -2 -125 -5z m80 -40 c-12 -15 -30 -12 -30 6 0 5
10 9 21 9 18 0 19 -2 9 -15z m120 5 c0 -5 -4 -10 -9 -10 -6 0 -13 5 -16 10 -3
6 1 10 9 10 9 0 16 -4 16 -10z"/>
<path d="M425 1649 c-4 -6 -5 -12 -2 -15 2 -3 7 2 10 11 7 17 1 20 -8 4z"/>
<path d="M2557 1639 c6 -6 9 -18 6 -26 -3 -7 -1 -13 4 -11 6 2 20 -8 32 -22
13 -14 8 -4 -9 23 -17 26 -34 47 -37 47 -4 0 -2 -5 4 -11z"/>
<path d="M580 1619 c-36 -10 -76 -18 -89 -18 -20 -1 -22 -3 -10 -17 10 -12 23
-14 52 -10 45 8 117 42 117 56 0 6 -1 9 -2 9 -2 -1 -32 -10 -68 -20z"/>
<path d="M1033 1628 c-6 -7 -22 -35 -36 -63 -33 -68 -25 -90 39 -99 94 -13 97
-12 122 49 23 59 29 110 12 120 -6 3 -10 -5 -10 -19 0 -14 -10 -50 -22 -81
-25 -59 -34 -63 -105 -49 -24 5 -30 11 -30 30 0 14 4 21 10 17 5 -3 7 -2 4 4
-3 5 3 24 14 42 19 31 22 32 69 28 28 -3 50 -1 50 3 0 13 -10 17 -61 24 -32 5
-49 3 -56 -6z"/>
<path d="M1874 1632 c-7 -4 -26 -38 -44 -75 -49 -104 -116 -132 -205 -87 -47
24 -55 25 -55 6 0 -15 64 -50 114 -62 49 -12 136 16 177 57 42 42 86 146 69
163 -7 7 -10 2 -10 -17 0 -26 -44 -127 -55 -127 -3 0 3 17 14 38 27 53 37 112
20 112 -8 0 -19 -4 -25 -8z m-19 -94 c-9 -25 -29 -57 -44 -72 -32 -31 -96 -50
-120 -36 -12 7 -4 9 26 10 54 0 93 33 122 101 27 62 37 60 16 -3z"/>
<path d="M405 1610 c3 -5 8 -10 11 -10 2 0 4 5 4 10 0 6 -5 10 -11 10 -5 0 -7
-4 -4 -10z"/>
<path d="M764 1609 c-64 -32 -40 -129 31 -129 24 0 65 46 65 73 0 48 -52 78
-96 56z m63 -31 c22 -17 -1 -68 -31 -68 -39 0 -61 41 -35 67 13 13 49 14 66 1z"/>
<path d="M363 1558 c-22 -28 -24 -38 -8 -32 9 4 13 9 11 12 -3 3 -1 11 5 19 6
7 9 13 6 13 -2 0 -9 -6 -14 -12z"/>
<path d="M2626 1535 c4 -8 11 -15 16 -15 6 0 5 6 -2 15 -7 8 -14 15 -16 15 -2
0 -1 -7 2 -15z"/>
<path d="M580 1513 c-27 -19 -80 -101 -80 -124 0 -16 33 -35 78 -44 18 -3 22
-1 17 14 -6 19 46 98 71 108 18 7 3 28 -36 48 -23 12 -30 12 -50 -2z m47 -24
c16 -16 -43 -89 -70 -89 -18 0 -17 -2 4 -20 13 -10 19 -19 12 -20 -14 0 -43
28 -43 42 0 17 40 77 58 88 22 12 26 12 39 -1z"/>
<path d="M1090 1500 c-9 -6 -10 -10 -3 -10 6 0 15 5 18 10 8 12 4 12 -15 0z"/>
<path d="M326 1491 c-3 -5 -36 -16 -74 -25 -37 -10 -85 -27 -107 -39 l-40 -23
1 -79 c0 -93 21 -147 66 -175 16 -10 67 -28 113 -40 70 -19 89 -29 123 -64
l41 -41 7 -131 7 -131 -52 -102 c-52 -105 -68 -181 -37 -181 7 0 20 -10 29
-23 24 -35 36 -11 43 86 4 48 11 87 16 87 4 0 7 -40 6 -89 -3 -94 6 -119 38
-107 15 6 16 18 10 111 -6 89 -5 105 7 105 8 0 20 -14 26 -30 11 -33 36 -49
53 -32 18 18 1 57 -49 112 -38 43 -48 62 -54 104 -11 76 -10 176 1 176 6 0 10
-4 10 -9 0 -13 146 -132 153 -125 3 3 57 -2 121 -11 275 -38 875 -48 1216 -20
84 7 324 34 357 41 12 2 71 44 132 94 l111 89 -6 -107 c-8 -141 -17 -173 -64
-227 -43 -50 -59 -90 -42 -107 17 -17 40 -2 56 37 8 19 20 35 26 35 9 0 10
-31 5 -115 -7 -102 -6 -115 9 -121 31 -12 41 14 42 104 2 121 5 122 18 8 11
-103 26 -129 47 -83 7 15 17 23 25 20 11 -4 14 6 14 44 0 40 -11 71 -51 154
l-51 104 6 143 c5 140 6 143 33 167 15 13 46 31 68 40 130 53 145 74 153 205
l5 90 -45 19 c-56 24 -197 56 -206 46 -4 -4 5 -17 21 -29 15 -12 27 -26 27
-32 0 -5 19 -28 43 -51 46 -44 46 -44 128 -9 14 6 15 1 8 -41 -17 -105 -45
-147 -107 -159 -18 -3 -43 -14 -55 -25 -83 -65 -1058 -110 -1712 -80 -413 20
-720 68 -813 128 -30 18 -51 70 -58 134 l-5 50 28 -14 c15 -8 40 -17 56 -21
23 -5 27 -3 27 14 0 13 7 20 18 20 31 0 61 41 56 77 -3 25 0 31 14 28 9 -1 22
2 28 6 17 13 37 -16 29 -41 -5 -17 -12 -20 -32 -15 -18 4 -24 2 -21 -7 6 -18
46 -22 64 -8 17 15 19 71 2 88 -14 14 -54 16 -62 3z m-36 -62 c0 -12 -77 -89
-89 -89 -16 0 -71 32 -71 41 0 5 17 17 38 25 20 9 45 21 55 26 10 5 22 6 27 3
5 -3 11 -1 15 5 7 12 25 4 25 -11z m2499 -5 c35 -7 76 -38 68 -51 -4 -6 -23
-14 -43 -18 -33 -6 -39 -3 -70 32 -41 46 -43 57 -8 49 15 -4 38 -9 53 -12z
m-179 -374 c-19 -16 -41 -30 -47 -30 -7 0 -13 -4 -13 -9 0 -5 -8 -12 -18 -15
-10 -3 -33 -21 -52 -39 -69 -65 -124 -98 -176 -103 -27 -2 -56 -6 -64 -8 -8
-3 -53 -8 -100 -11 -47 -4 -93 -9 -103 -11 -119 -22 -992 -23 -1112 0 -11 2
-51 7 -90 10 -181 16 -185 18 -257 84 -51 47 -75 63 -90 60 -7 -2 -14 7 -16
19 -2 13 -15 32 -29 43 -14 11 -24 22 -22 24 2 2 40 -2 84 -10 44 -7 94 -13
110 -12 l30 0 -30 8 c-27 7 -25 8 17 9 26 0 50 -4 54 -11 5 -8 0 -9 -14 -6
-12 4 -22 3 -22 -2 0 -4 37 -11 83 -14 45 -4 98 -9 117 -12 138 -15 466 -31
475 -22 3 3 -61 8 -142 11 -214 9 -433 29 -433 39 0 5 30 7 68 3 164 -14 241
-17 632 -20 418 -4 540 0 940 31 47 4 83 4 80 1 -10 -10 -230 -39 -409 -53
l-176 -13 142 5 c140 5 295 21 443 45 61 11 70 14 50 21 -17 5 -12 6 15 2 22
-3 52 -1 65 5 43 17 46 12 10 -19z m-2063 14 c-3 -3 -12 -4 -19 -1 -8 3 -5 6
6 6 11 1 17 -2 13 -5z m186 -21 c-7 -2 -19 -2 -25 0 -7 3 -2 5 12 5 14 0 19
-2 13 -5z m1907 -362 c16 -34 25 -61 20 -61 -5 0 -12 5 -15 11 -4 5 -12 8 -18
6 -6 -2 -22 9 -35 24 -22 27 -22 29 -7 59 9 18 19 30 22 27 2 -3 18 -33 33
-66z m-2131 7 c18 -21 17 -22 -10 -46 -16 -13 -33 -21 -38 -17 -9 5 -42 -44
-41 -60 3 -71 -1 -94 -15 -89 -25 10 -17 60 21 137 36 71 52 97 61 97 3 0 13
-10 22 -22z m2197 -167 c4 -19 0 -29 -15 -39 -20 -12 -21 -10 -20 60 l1 73 14
-34 c8 -18 17 -45 20 -60z"/>
<path d="M1432 988 c-9 -4 82 -7 202 -7 121 -1 217 2 213 5 -8 9 -393 11 -415
2z"/>
<path d="M669 1447 c-33 -40 -59 -91 -59 -112 0 -23 9 -17 63 42 34 36 48 59
45 74 -5 34 -20 33 -49 -4z"/>
<path d="M1375 1441 c-56 -19 -66 -41 -45 -92 12 -28 15 -29 82 -29 91 0 108
10 108 61 0 60 -14 79 -58 79 -20 -1 -59 -9 -87 -19z m113 -38 c3 -20 -1 -23
-37 -25 -23 -1 -48 -2 -58 -2 -22 -1 -25 31 -5 44 10 5 35 9 57 7 33 -2 41 -6
43 -24z m-59 -39 c54 9 83 5 69 -9 -3 -3 -35 -8 -73 -12 -73 -7 -85 0 -84 47
0 24 0 24 13 -6 l14 -30 61 10z"/>
<path d="M956 1419 c-32 -25 -34 -63 -4 -83 29 -21 51 -20 71 2 48 53 -12 124
-67 81z m60 -31 c7 -24 -19 -50 -42 -41 -17 6 -19 50 -1 56 25 10 36 7 43 -15z"/>
<path d="M1598 1393 c17 -2 47 -2 65 0 17 2 3 4 -33 4 -36 0 -50 -2 -32 -4z"/>
<path d="M2247 1372 c-21 -23 -21 -41 -1 -70 18 -26 65 -30 84 -7 7 8 13 26
13 40 0 14 -6 32 -13 40 -17 21 -63 19 -83 -3z m73 -26 c0 -28 -12 -46 -31
-46 -20 0 -39 28 -32 48 7 17 63 16 63 -2z"/>
<path d="M270 1353 c0 -16 43 -35 94 -40 28 -2 83 -11 123 -19 40 -8 75 -14
78 -14 3 0 5 -5 5 -11 0 -5 -4 -8 -9 -5 -4 3 -39 8 -77 10 -38 3 -94 8 -124
12 -30 3 -52 4 -49 0 8 -8 312 -43 539 -61 273 -22 914 -30 1175 -16 235 13
452 34 577 56 46 8 103 17 126 20 54 6 91 24 52 25 -14 0 -64 -7 -112 -15
-244 -40 -694 -65 -1158 -65 -415 0 -887 21 -876 39 3 4 38 4 78 0 40 -4 156
-9 258 -12 l185 -5 -190 13 c-193 14 -371 34 -525 60 -47 8 -96 16 -110 18
-14 3 -33 8 -42 12 -10 4 -18 3 -18 -2z m340 -83 c0 -5 -4 -10 -10 -10 -5 0
-10 5 -10 10 0 6 5 10 10 10 6 0 10 -4 10 -10z"/>
<path d="M2665 1335 c-16 -8 -46 -15 -65 -15 -19 -1 -29 -4 -22 -7 21 -8 97 6
118 22 24 18 8 18 -31 0z"/>
<path d="M2488 1303 c12 -2 32 -2 45 0 12 2 2 4 -23 4 -25 0 -35 -2 -22 -4z"/>
<path d="M2070 1290 c-25 -4 -4 -5 50 -2 52 2 97 6 99 8 7 6 -99 2 -149 -6z"/>
<path d="M2373 1293 c9 -2 23 -2 30 0 6 3 -1 5 -18 5 -16 0 -22 -2 -12 -5z"/>
<path d="M284 1278 c-13 -21 33 -45 113 -58 43 -6 94 -16 113 -21 19 -4 77
-11 129 -14 51 -4 102 -8 112 -10 33 -7 139 -9 144 -3 3 3 -45 8 -107 12 -132
8 -384 42 -448 61 -31 8 -45 18 -44 29 2 19 -2 20 -12 4z"/>
<path d="M1903 1273 c15 -2 39 -2 55 0 15 2 2 4 -28 4 -30 0 -43 -2 -27 -4z"/>
<path d="M1763 1263 c9 -2 23 -2 30 0 6 3 -1 5 -18 5 -16 0 -22 -2 -12 -5z"/>
<path d="M1818 1263 c7 -3 16 -2 19 1 4 3 -2 6 -13 5 -11 0 -14 -3 -6 -6z"/>
<path d="M2638 1253 c7 -3 16 -2 19 1 4 3 -2 6 -13 5 -11 0 -14 -3 -6 -6z"/>
<path d="M2598 1243 c7 -3 16 -2 19 1 4 3 -2 6 -13 5 -11 0 -14 -3 -6 -6z"/>
<path d="M2538 1233 c6 -2 18 -2 25 0 6 3 1 5 -13 5 -14 0 -19 -2 -12 -5z"/>
<path d="M2473 1223 c9 -2 23 -2 30 0 6 3 -1 5 -18 5 -16 0 -22 -2 -12 -5z"/>
<path d="M2275 1205 c-55 -8 -188 -18 -295 -24 -272 -16 -302 -20 -110 -15
183 4 349 17 485 38 114 17 53 18 -80 1z"/>
<path d="M910 1167 c15 -16 771 -29 787 -13 4 3 -122 6 -278 6 -156 0 -336 3
-399 6 -63 4 -113 4 -110 1z"/>
<path d="M2205 800 c-363 -55 -1052 -57 -1416 -5 -66 10 -123 14 -127 10 -8
-8 48 -55 66 -55 7 0 30 -12 49 -27 38 -29 47 -30 293 -33 32 0 48 -4 38 -8
-9 -4 164 -7 385 -7 221 0 375 3 342 6 -55 6 -52 6 30 7 50 0 128 5 174 11 47
6 87 8 90 6 2 -3 -4 -5 -15 -6 -18 0 -18 -1 1 -8 81 -32 -644 -53 -1041 -31
-99 6 -190 12 -204 15 -25 5 -25 5 5 -19 89 -75 199 -106 443 -124 l87 -7 11
-100 c6 -55 9 -103 8 -106 -2 -4 -36 -10 -75 -13 -39 -4 -83 -12 -98 -17 -33
-13 -71 -48 -71 -67 0 -12 25 -14 154 -11 85 2 158 7 162 12 4 4 1 29 -8 55
-9 26 -19 74 -23 107 -3 33 -8 78 -11 100 l-5 40 51 0 51 0 -6 -100 c-4 -55
-11 -120 -16 -144 -7 -30 -6 -48 1 -55 7 -7 71 -12 160 -15 131 -3 150 -1 150
13 0 40 -65 70 -182 81 l-68 7 0 42 c0 22 3 71 6 107 l7 67 106 7 c204 13 311
46 398 120 23 19 49 35 58 35 9 0 34 14 55 30 21 17 41 30 44 30 11 0 76 54
76 63 0 4 -3 7 -7 6 -5 -1 -62 -9 -128 -19z m45 -28 c0 -12 -70 -32 -109 -32
-18 0 -30 -4 -27 -8 3 -5 -17 -7 -44 -4 -28 2 -50 1 -50 -4 0 -11 -33 -12
-530 -11 -538 0 -570 1 -570 10 0 4 -13 7 -30 7 -46 0 -130 21 -130 32 0 9
121 4 184 -8 108 -20 762 -24 981 -6 173 15 249 23 254 28 8 8 71 4 71 -4z
m-83 -48 c-3 -3 -12 -4 -19 -1 -8 3 -5 6 6 6 11 1 17 -2 13 -5z m-400 -40 c-3
-3 -12 -4 -19 -1 -8 3 -5 6 6 6 11 1 17 -2 13 -5z m272 -42 c-20 -31 -151 -67
-289 -77 -47 -4 -98 -9 -115 -12 -40 -6 -178 -5 -295 2 -177 12 -376 55 -395
85 -3 5 57 6 132 2 306 -14 943 -5 961 13 11 11 12 4 1 -13z m-575 -378 c4
-13 2 -21 -6 -22 -7 0 -64 -3 -127 -5 -99 -4 -111 -3 -99 10 8 7 55 20 103 28
49 8 93 19 99 25 11 11 18 2 30 -36z m211 12 c64 -7 115 -23 115 -36 0 -10
-222 -1 -232 9 -3 3 -4 18 -1 32 5 25 7 26 31 14 15 -7 54 -16 87 -19z"/>
<path d="M913 683 c15 -2 37 -2 50 0 12 2 0 4 -28 4 -27 0 -38 -2 -22 -4z"/>
<path d="M2003 683 c9 -2 25 -2 35 0 9 3 1 5 -18 5 -19 0 -27 -2 -17 -5z"/>
</g>
</svg>
