<?xml version="1.0" standalone="no"?>
<!DOCTYPE svg PUBLIC "-//W3C//DTD SVG 20010904//EN"
 "http://www.w3.org/TR/2001/REC-SVG-20010904/DTD/svg10.dtd">
<svg version="1.0" xmlns="http://www.w3.org/2000/svg"
 width="196.000000pt" height="268.000000pt" viewBox="0 0 196.000000 268.000000"
 preserveAspectRatio="xMidYMid meet">
<metadata>
Created by potrace 1.10, written by Peter Selinger 2001-2011
</metadata>
<g transform="translate(0.000000,268.000000) scale(0.100000,-0.100000)"
fill="#000000" stroke="none">
<path d="M1652 2641 c4 -13 18 -16 19 -4 0 4 -5 9 -11 12 -7 2 -11 -2 -8 -8z"/>
<path d="M1584 2624 c5 -10 11 -27 13 -36 6 -19 9 -20 35 -10 15 6 12 12 -19
36 -29 24 -35 26 -29 10z"/>
<path d="M1674 2543 c-1 -21 1 -30 3 -20 3 9 8 15 12 12 5 -2 8 5 7 17 -2 38
-22 30 -22 -9z"/>
<path d="M1524 2532 c3 -6 2 -13 -3 -17 -13 -7 -3 -35 12 -32 6 1 15 -11 21
-28 6 -16 17 -36 24 -44 11 -11 12 -9 6 13 -3 15 -2 26 4 26 6 0 8 9 5 20 -3
13 -14 20 -29 20 -17 0 -24 6 -24 19 0 11 -5 23 -12 27 -6 4 -8 3 -4 -4z"/>
<path d="M1600 2494 c0 -8 5 -12 10 -9 6 3 10 10 10 16 0 5 -4 9 -10 9 -5 0
-10 -7 -10 -16z"/>
<path d="M1675 2490 c3 -5 11 -10 16 -10 6 0 7 5 4 10 -3 6 -11 10 -16 10 -6
0 -7 -4 -4 -10z"/>
<path d="M1497 2430 c3 -11 7 -20 9 -20 2 0 4 9 4 20 0 11 -4 20 -9 20 -5 0
-7 -9 -4 -20z"/>
<path d="M1596 2405 c-5 -22 -13 -35 -23 -35 -10 0 -13 -6 -9 -16 3 -9 6 -18
6 -20 0 -2 7 -4 15 -4 8 0 14 3 14 8 -4 21 3 34 15 29 9 -4 13 4 12 31 -1 47
-22 52 -30 7z"/>
<path d="M1455 2419 c-4 -6 -5 -13 -2 -16 3 -3 1 -16 -4 -30 -7 -19 -6 -24 3
-21 7 3 16 21 19 41 6 36 -3 49 -16 26z"/>
<path d="M1487 2351 c-3 -11 -1 -23 3 -26 14 -8 22 13 12 31 -8 14 -10 14 -15
-5z"/>
<path d="M1520 2326 c0 -8 -6 -16 -12 -19 -7 -2 -9 -8 -5 -13 5 -5 15 -1 23
10 16 23 18 36 4 36 -5 0 -10 -6 -10 -14z"/>
<path d="M1240 2130 c-8 -5 -11 -12 -7 -16 3 -4 13 -1 22 6 12 10 15 10 15 -4
0 -10 4 -15 10 -11 12 7 1 35 -14 35 -6 0 -18 -4 -26 -10z"/>
<path d="M1225 2080 c3 -6 -1 -18 -10 -27 -14 -14 -18 -14 -26 -2 -6 10 -9 10
-9 2 0 -7 -8 -13 -17 -14 -11 0 -13 -3 -5 -6 6 -2 12 -12 12 -20 0 -8 -6 -13
-13 -10 -6 2 -18 -1 -24 -8 -10 -10 -9 -16 2 -25 8 -7 15 -7 19 -1 3 5 0 12
-6 14 -7 3 -3 6 10 6 16 1 22 -5 22 -20 0 -18 -5 -21 -29 -17 -17 2 -28 1 -25
-4 3 -4 18 -8 34 -8 19 0 30 -6 33 -17 4 -17 5 -17 6 0 0 9 7 17 14 17 21 0
76 54 97 95 23 46 23 45 10 45 -15 0 -49 -37 -42 -46 4 -4 -3 -5 -15 -2 -16 4
-24 1 -28 -13 -4 -10 -11 -19 -16 -19 -5 0 -9 -5 -9 -11 0 -6 7 -9 15 -5 26 9
16 -18 -10 -31 -21 -9 -25 -9 -25 5 0 10 -3 28 -7 41 -4 15 -2 22 4 18 14 -9
61 35 55 51 -2 7 2 10 11 6 8 -3 17 -1 20 3 3 5 -8 10 -24 11 -19 2 -28 -2
-24 -8z m45 -77 c0 -7 -7 -13 -15 -13 -8 0 -15 6 -15 13 0 8 7 14 15 14 8 0
15 -6 15 -14z"/>
<path d="M1090 2022 c0 -13 -6 -22 -15 -22 -9 0 -20 -12 -25 -26 -13 -33 -13
-33 8 -27 13 3 18 -2 20 -21 1 -14 -2 -26 -7 -26 -5 0 -7 -9 -4 -21 10 -37 28
-2 29 57 1 36 6 59 15 65 12 7 11 11 -3 26 -17 16 -18 16 -18 -5z"/>
<path d="M1125 1911 c-8 -14 7 -19 35 -10 27 8 27 8 -7 15 -12 2 -25 0 -28 -5z"/>
<path d="M1015 1899 c-4 -6 -13 -8 -21 -5 -10 4 -14 -2 -14 -18 0 -15 -9 -27
-25 -34 -14 -6 -25 -16 -25 -21 0 -5 -9 -11 -19 -14 -13 -3 -18 0 -15 8 10 25
-13 24 -24 0 -7 -15 -8 -25 -2 -25 6 0 10 -6 10 -14 0 -19 17 -29 32 -20 7 5
5 11 -7 21 -18 13 -18 13 1 13 10 0 38 20 62 45 24 25 47 45 52 45 6 0 10 7
10 15 0 18 -6 19 -15 4z"/>
<path d="M1143 1883 c-7 -2 -13 -9 -13 -15 0 -6 7 -7 15 -4 10 4 19 -2 25 -17
8 -20 9 -19 9 11 1 31 -7 37 -36 25z"/>
<path d="M1034 1847 c4 -19 3 -26 -4 -22 -5 3 -10 1 -10 -5 0 -7 8 -9 20 -5
23 7 26 -5 8 -23 -14 -14 -19 -64 -6 -56 4 3 8 17 8 30 0 30 23 28 29 -2 4
-25 20 -44 38 -44 10 0 8 9 -9 33 -13 17 -27 35 -33 39 -5 4 -6 8 -1 8 5 0 2
8 -7 18 -10 10 -15 21 -12 24 3 3 -2 11 -11 19 -16 13 -17 11 -10 -14z"/>
<path d="M1107 1839 c-9 -6 -17 -14 -17 -19 0 -16 37 -11 43 5 8 19 -4 26 -26
14z"/>
<path d="M980 1830 c-8 -5 -11 -12 -8 -16 4 -3 14 1 23 10 18 17 9 21 -15 6z"/>
<path d="M1160 1786 c0 -8 7 -16 15 -20 17 -6 18 -4 9 18 -8 20 -24 21 -24 2z"/>
<path d="M940 1779 c0 -5 5 -7 10 -4 6 3 10 8 10 11 0 2 -4 4 -10 4 -5 0 -10
-5 -10 -11z"/>
<path d="M810 1761 c0 -6 5 -13 11 -17 6 -3 9 -19 7 -34 -3 -19 2 -31 15 -39
10 -7 22 -9 25 -5 4 4 2 9 -5 11 -7 2 -10 10 -7 18 3 7 0 16 -5 20 -6 3 -9 11
-6 16 4 5 0 16 -9 24 -17 17 -26 19 -26 6z"/>
<path d="M966 1762 c-3 -4 4 -9 15 -9 23 -2 25 3 4 10 -8 4 -16 3 -19 -1z"/>
<path d="M791 1713 c0 -25 1 -26 9 -8 12 27 12 35 0 35 -5 0 -10 -12 -9 -27z"/>
<path d="M875 1730 c-4 -6 6 -7 27 -3 44 8 48 13 10 13 -17 0 -34 -4 -37 -10z"/>
<path d="M890 1692 c0 -11 39 -12 45 -1 4 5 -5 9 -19 9 -14 0 -26 -4 -26 -8z"/>
<path d="M1018 1677 c7 -8 10 -21 6 -30 -4 -11 -1 -14 13 -11 10 2 24 0 32 -5
15 -10 7 -31 -13 -31 -8 0 -27 -7 -42 -16 -26 -14 -27 -15 -4 -9 14 4 35 7 48
7 12 0 23 5 23 12 7 56 6 56 -18 56 -17 0 -23 5 -21 17 2 11 -5 19 -17 21 -16
4 -17 2 -7 -11z"/>
<path d="M769 1659 c11 -12 25 -19 33 -16 9 4 8 6 -3 6 -9 1 -19 8 -23 16 -3
8 -10 15 -16 15 -6 0 -2 -9 9 -21z"/>
<path d="M1090 1671 c0 -6 9 -9 19 -8 11 0 17 5 15 9 -7 11 -34 10 -34 -1z"/>
<path d="M941 1662 c-1 -13 48 -37 57 -27 3 3 -1 5 -9 5 -12 0 -12 2 1 10 8 5
11 13 6 17 -5 4 -11 2 -13 -4 -3 -7 -11 -13 -18 -13 -7 0 -16 6 -18 13 -4 9
-6 9 -6 -1z"/>
<path d="M908 1653 c7 -3 16 -2 19 1 4 3 -2 6 -13 5 -11 0 -14 -3 -6 -6z"/>
<path d="M745 1630 c3 -5 1 -18 -5 -29 -7 -13 -7 -22 0 -26 5 -3 10 3 10 13 0
11 7 23 16 26 18 7 9 26 -12 26 -8 0 -12 -4 -9 -10z"/>
<path d="M810 1605 c10 -13 9 -15 -11 -15 -22 -1 -23 -1 -5 -11 14 -9 20 -8
27 2 14 22 10 39 -7 39 -14 0 -14 -3 -4 -15z"/>
<path d="M990 1610 c0 -5 5 -10 10 -10 6 0 10 5 10 10 0 6 -4 10 -10 10 -5 0
-10 -4 -10 -10z"/>
<path d="M874 1595 c3 -8 1 -15 -4 -15 -6 0 -10 -4 -10 -10 0 -5 6 -7 14 -4
16 6 18 44 3 44 -5 0 -7 -7 -3 -15z"/>
<path d="M928 1594 c12 -8 28 -13 35 -11 7 3 5 6 -5 6 -10 1 -18 6 -18 11 0 6
-8 10 -17 10 -14 0 -13 -3 5 -16z"/>
<path d="M930 1563 c0 -6 11 -18 25 -27 14 -9 25 -12 25 -7 0 5 6 11 13 14 6
2 3 3 -8 1 -10 -2 -27 4 -37 13 -10 9 -18 11 -18 6z"/>
<path d="M1110 1562 c0 -7 7 -20 15 -28 19 -20 20 -4 0 22 -9 12 -14 14 -15 6z"/>
<path d="M777 1553 c-3 -5 -4 -29 -3 -55 1 -28 -2 -48 -8 -49 -6 0 -1 -5 12
-11 17 -9 26 -8 35 1 10 11 8 12 -9 7 -19 -6 -21 -3 -16 19 2 14 9 25 14 25 5
0 2 7 -7 16 -9 9 -13 24 -10 35 6 19 0 26 -8 12z"/>
<path d="M1068 1544 c13 -9 21 -22 18 -30 -3 -9 4 -16 19 -20 14 -3 25 -10 25
-15 0 -5 9 -9 20 -9 20 0 29 19 10 21 -11 2 -25 5 -37 9 -5 1 -11 2 -15 1 -3
0 -9 13 -13 29 -5 22 -12 30 -28 30 -21 0 -21 0 1 -16z"/>
<path d="M1035 1530 c-3 -6 1 -7 9 -4 18 7 21 14 7 14 -6 0 -13 -4 -16 -10z"/>
<path d="M820 1516 c0 -8 4 -17 9 -20 5 -4 7 3 4 14 -6 23 -13 26 -13 6z"/>
<path d="M840 1519 c0 -5 5 -7 10 -4 6 3 10 8 10 11 0 2 -4 4 -10 4 -5 0 -10
-5 -10 -11z"/>
<path d="M887 1512 c1 -8 3 -18 3 -24 0 -6 9 -3 20 7 12 11 26 15 37 10 16 -6
16 -8 -7 -27 -14 -11 -24 -25 -22 -29 1 -5 -3 -9 -9 -9 -6 0 -3 -7 6 -16 9 -9
19 -13 23 -10 3 4 1 11 -6 15 -10 6 -10 11 3 21 11 9 18 10 29 1 7 -6 21 -9
30 -5 25 10 19 22 -9 16 -27 -5 -35 15 -10 24 8 4 15 10 15 16 0 5 -5 6 -11 3
-5 -4 -20 1 -31 12 -15 13 -22 15 -25 6 -5 -14 -29 -18 -36 -5 -2 4 -2 1 0 -6z"/>
<path d="M730 1510 c0 -5 5 -10 11 -10 5 0 7 5 4 10 -3 6 -8 10 -11 10 -2 0
-4 -4 -4 -10z"/>
<path d="M1000 1510 c0 -5 5 -10 10 -10 6 0 10 5 10 10 0 6 -4 10 -10 10 -5 0
-10 -4 -10 -10z"/>
<path d="M1185 1500 c-3 -5 1 -10 10 -10 9 0 13 5 10 10 -3 6 -8 10 -10 10 -2
0 -7 -4 -10 -10z"/>
<path d="M1072 1470 c-7 -11 -8 -20 -3 -20 9 0 24 30 18 36 -1 2 -8 -6 -15
-16z"/>
<path d="M820 1471 c0 -5 5 -13 10 -16 6 -3 10 -2 10 4 0 5 -4 13 -10 16 -5 3
-10 2 -10 -4z"/>
<path d="M1170 1445 c-13 -14 -18 -25 -12 -25 6 0 14 5 18 11 4 8 13 1 22 -17
10 -19 17 -24 20 -15 2 7 -1 17 -8 21 -7 4 -10 15 -7 24 10 26 -9 27 -33 1z"/>
<path d="M1095 1450 c-3 -5 -2 -10 4 -10 5 0 13 5 16 10 3 6 2 10 -4 10 -5 0
-13 -4 -16 -10z"/>
<path d="M839 1427 c7 -7 18 -7 33 0 22 10 21 11 -10 10 -22 0 -30 -3 -23 -10z"/>
<path d="M1000 1436 c0 -2 7 -6 15 -10 8 -3 15 -1 15 4 0 6 -7 10 -15 10 -8 0
-15 -2 -15 -4z"/>
<path d="M1040 1431 c0 -18 18 -21 30 -6 10 13 9 15 -9 15 -11 0 -21 -4 -21
-9z"/>
<path d="M1242 1423 c6 -7 14 -10 19 -7 15 9 10 20 -10 20 -15 0 -17 -3 -9
-13z"/>
<path d="M1101 1414 c13 -16 29 -19 29 -5 0 5 -9 11 -21 14 -16 4 -18 3 -8 -9z"/>
<path d="M880 1410 c-13 -8 -12 -10 3 -10 9 0 17 5 17 10 0 12 -1 12 -20 0z"/>
<path d="M980 1410 c0 -5 5 -10 10 -10 6 0 10 5 10 10 0 6 -4 10 -10 10 -5 0
-10 -4 -10 -10z"/>
<path d="M820 1405 c-1 -5 -2 -18 -1 -27 1 -10 -4 -18 -12 -18 -8 0 -17 -7
-21 -15 -6 -17 9 -21 19 -5 3 6 15 10 27 10 15 0 18 3 10 13 -5 6 -12 21 -15
32 -2 11 -6 16 -7 10z"/>
<path d="M1016 1394 c-17 -12 -17 -14 -4 -14 9 0 20 5 23 11 11 17 2 18 -19 3z"/>
<path d="M946 1376 c-8 -33 2 -55 24 -53 21 1 16 17 -6 17 -16 0 -19 16 -4 25
12 8 13 35 1 35 -5 0 -12 -11 -15 -24z"/>
<path d="M1076 1386 c4 -11 0 -13 -15 -9 -12 3 -21 1 -21 -6 0 -18 31 -26 41
-10 12 19 11 39 -1 39 -5 0 -7 -6 -4 -14z"/>
<path d="M1235 1371 c5 -17 2 -21 -13 -21 -11 0 -23 6 -25 13 -3 7 -6 5 -6 -5
-1 -22 37 -24 64 -4 18 13 18 14 -4 26 -21 11 -22 10 -16 -9z"/>
<path d="M981 1364 c0 -11 3 -14 6 -6 3 7 2 16 -1 19 -3 4 -6 -2 -5 -13z"/>
<path d="M890 1365 c0 -2 10 -10 23 -16 20 -11 21 -11 8 4 -13 16 -31 23 -31
12z"/>
<path d="M1086 1345 c-3 -9 0 -15 9 -15 8 0 15 7 15 15 0 8 -4 15 -9 15 -5 0
-11 -7 -15 -15z"/>
<path d="M864 1341 c3 -5 -1 -11 -8 -14 -8 -3 -17 -1 -20 6 -2 7 -4 0 -3 -14
1 -31 18 -29 42 7 14 22 14 24 0 24 -9 0 -14 -4 -11 -9z"/>
<path d="M1030 1331 c0 -10 39 -31 44 -23 2 4 -7 12 -20 19 -13 6 -24 8 -24 4z"/>
<path d="M1249 1338 c-8 -15 -4 -48 6 -48 7 0 15 -9 18 -20 3 -11 10 -20 16
-20 17 0 13 18 -10 41 -11 11 -18 27 -15 35 4 11 -10 22 -15 12z"/>
<path d="M1215 1320 c-3 -5 -1 -10 4 -10 6 0 11 5 11 10 0 6 -2 10 -4 10 -3 0
-8 -4 -11 -10z"/>
<path d="M885 1310 c-3 -5 -1 -10 4 -10 6 0 11 5 11 10 0 6 -2 10 -4 10 -3 0
-8 -4 -11 -10z"/>
<path d="M1117 1313 c-4 -6 4 -15 17 -21 18 -8 23 -7 23 4 0 7 -5 10 -10 7 -5
-3 -13 0 -17 7 -4 7 -10 8 -13 3z"/>
<path d="M922 1297 c-8 -10 -6 -13 7 -13 11 0 17 6 14 13 -3 7 -6 13 -8 13 -1
0 -7 -6 -13 -13z"/>
<path d="M967 1290 c-3 -11 -2 -20 3 -20 12 0 21 28 11 35 -5 2 -11 -4 -14
-15z"/>
<path d="M1020 1303 c0 -6 7 -13 15 -17 8 -3 12 -12 9 -21 -7 -18 12 -21 20
-2 5 9 7 9 12 -1 5 -10 9 -10 20 -1 19 16 8 29 -25 29 -15 0 -32 5 -39 12 -8
8 -12 8 -12 1z"/>
<path d="M860 1280 c19 -13 30 -13 30 0 0 6 -10 10 -22 10 -19 0 -20 -2 -8
-10z"/>
<path d="M1320 1281 c0 -5 5 -13 10 -16 6 -3 10 -2 10 4 0 5 -4 13 -10 16 -5
3 -10 2 -10 -4z"/>
<path d="M1010 1270 c0 -5 5 -10 10 -10 6 0 10 5 10 10 0 6 -4 10 -10 10 -5 0
-10 -4 -10 -10z"/>
<path d="M990 1262 c0 -7 12 -17 28 -22 15 -6 34 -14 44 -20 12 -6 20 -5 30 7
11 14 11 15 -2 11 -20 -6 -83 11 -92 26 -6 8 -8 7 -8 -2z"/>
<path d="M855 1230 c0 -34 9 -39 24 -13 12 23 22 13 15 -14 -4 -13 -12 -19
-19 -17 -8 3 -18 -4 -25 -15 -11 -21 -2 -28 16 -12 5 6 18 2 33 -10 13 -11 21
-22 17 -26 -3 -3 -15 2 -26 12 -13 12 -20 14 -20 5 0 -7 -7 -10 -15 -6 -22 8
-18 -7 4 -21 15 -10 20 -10 24 0 3 9 7 9 19 -1 13 -10 18 -9 29 4 13 16 14 16
-31 44 -13 9 -13 11 0 20 8 5 11 10 6 10 -6 0 -5 5 2 12 18 18 15 25 -20 42
-17 9 -32 16 -32 16 -1 0 -1 -13 -1 -30z"/>
<path d="M933 1243 c9 -2 23 -2 30 0 6 3 -1 5 -18 5 -16 0 -22 -2 -12 -5z"/>
<path d="M1120 1235 c7 -9 15 -13 17 -11 7 7 -7 26 -19 26 -6 0 -6 -6 2 -15z"/>
<path d="M1166 1235 c16 -13 17 -16 4 -25 -14 -9 -67 -15 -99 -11 -11 2 -11 0
0 -12 9 -10 18 -12 24 -6 16 16 35 10 29 -8 -5 -16 -4 -16 6 0 9 13 20 17 38
13 15 -3 21 -3 14 0 -16 8 -5 25 12 18 8 -3 17 -1 21 5 3 6 0 11 -8 11 -8 0
-20 7 -27 15 -7 8 -17 15 -23 15 -6 0 -2 -7 9 -15z"/>
<path d="M1300 1236 c0 -2 7 -9 15 -16 12 -10 15 -10 15 4 0 9 -7 16 -15 16
-8 0 -15 -2 -15 -4z"/>
<path d="M960 1217 c0 -7 -9 -18 -20 -25 -12 -7 -18 -17 -15 -22 3 -5 17 2 30
14 26 24 33 46 15 46 -5 0 -10 -6 -10 -13z"/>
<path d="M985 1201 c-4 -13 -4 -25 -1 -28 3 -4 6 0 6 9 0 9 9 14 21 14 12 -1
24 6 27 14 5 13 3 13 -12 1 -14 -12 -19 -12 -26 -2 -6 10 -10 8 -15 -8z"/>
<path d="M1252 1198 c3 -7 13 -15 24 -17 16 -3 17 -1 5 13 -16 19 -34 21 -29
4z"/>
<path d="M1295 1200 c3 -5 8 -10 11 -10 2 0 4 5 4 10 0 6 -5 10 -11 10 -5 0
-7 -4 -4 -10z"/>
<path d="M1214 1178 c-10 -12 -13 -18 -5 -13 8 4 16 2 21 -5 5 -7 8 -2 8 14 0
31 0 31 -24 4z"/>
<path d="M1330 1185 c0 -8 2 -15 4 -15 2 0 6 7 10 15 3 8 1 15 -4 15 -6 0 -10
-7 -10 -15z"/>
<path d="M1000 1170 c0 -5 5 -10 10 -10 6 0 10 5 10 10 0 6 -4 10 -10 10 -5 0
-10 -4 -10 -10z"/>
<path d="M1284 1159 c-8 -14 8 -30 22 -21 9 5 8 10 -2 19 -9 9 -15 10 -20 2z"/>
<path d="M950 1152 c0 -12 19 -26 26 -19 2 2 -2 10 -11 17 -9 8 -15 8 -15 2z"/>
<path d="M1078 1153 c-9 -2 -19 -11 -22 -20 -6 -13 -3 -13 20 2 14 9 28 14 32
11 3 -3 0 -6 -6 -6 -7 0 -12 -8 -12 -17 0 -15 2 -14 19 3 12 13 15 21 7 26
-12 8 -12 8 -38 1z"/>
<path d="M1350 1150 c0 -5 5 -10 10 -10 6 0 10 5 10 10 0 6 -4 10 -10 10 -5 0
-10 -4 -10 -10z"/>
<path d="M1140 1130 c-13 -8 -13 -10 2 -10 9 0 20 5 23 10 8 13 -5 13 -25 0z"/>
<path d="M1196 1133 c-4 -4 3 -15 16 -25 19 -15 21 -19 8 -27 -8 -6 -11 -13
-7 -18 5 -4 11 -3 15 3 4 6 20 14 35 18 18 4 25 11 21 18 -6 9 -9 9 -12 0 -7
-21 -32 -13 -44 13 -12 26 -19 30 -32 18z"/>
<path d="M1327 1133 c-9 -14 7 -66 21 -71 9 -3 11 4 6 25 -9 39 -20 57 -27 46z"/>
<path d="M1016 1114 c-4 -9 -4 -19 -1 -22 2 -3 7 3 11 12 4 9 4 19 1 22 -2 3
-7 -3 -11 -12z"/>
<path d="M965 1110 c-3 -5 -1 -10 4 -10 6 0 11 5 11 10 0 6 -2 10 -4 10 -3 0
-8 -4 -11 -10z"/>
<path d="M1055 1100 c-19 -8 -19 -9 3 -9 12 -1 22 4 22 9 0 6 -1 10 -2 9 -2 0
-12 -4 -23 -9z"/>
<path d="M1104 1095 c-10 -8 -14 -15 -7 -15 6 0 15 5 18 10 4 6 11 7 17 4 18
-11 68 -13 62 -2 -3 5 -16 8 -27 6 -12 -1 -27 1 -33 4 -6 4 -20 1 -30 -7z"/>
<path d="M838 1083 c6 -2 18 -2 25 0 6 3 1 5 -13 5 -14 0 -19 -2 -12 -5z"/>
<path d="M888 1083 c6 -2 18 -2 25 0 6 3 1 5 -13 5 -14 0 -19 -2 -12 -5z"/>
<path d="M934 1082 c3 -6 -3 -13 -14 -17 -11 -4 -17 -11 -14 -17 4 -6 10 -5
15 3 7 11 10 9 15 -8 4 -13 11 -20 20 -16 8 3 14 0 14 -5 0 -6 -9 -14 -21 -17
-11 -4 -18 -9 -15 -12 3 -3 17 2 32 12 l27 17 -27 17 c-14 9 -24 21 -22 28 3
7 0 15 -6 19 -6 4 -8 3 -4 -4z"/>
<path d="M973 1075 c-9 -25 4 -29 17 -6 7 15 7 21 0 21 -6 0 -13 -7 -17 -15z"/>
<path d="M1115 1070 c-3 -5 -1 -10 4 -10 6 0 11 5 11 10 0 6 -2 10 -4 10 -3 0
-8 -4 -11 -10z"/>
<path d="M806 1049 c-14 -11 -26 -24 -26 -29 0 -11 69 32 70 43 0 13 -17 8
-44 -14z"/>
<path d="M870 1065 c0 -3 6 -14 13 -25 10 -17 9 -22 -1 -29 -10 -6 -7 -10 12
-13 31 -6 32 -4 5 38 -19 32 -29 41 -29 29z"/>
<path d="M1013 1033 c-37 -41 -43 -59 -13 -41 11 7 20 17 20 23 0 6 9 17 20
25 11 8 20 18 20 22 0 16 -16 7 -47 -29z"/>
<path d="M1160 1055 c-10 -12 -10 -15 4 -15 9 0 16 7 16 15 0 8 -2 15 -4 15
-2 0 -9 -7 -16 -15z"/>
<path d="M1298 1058 c-3 -7 -15 -13 -28 -13 -13 0 -25 -7 -27 -15 -3 -11 -2
-12 4 -3 6 8 22 10 46 6 48 -7 48 -23 0 -24 -37 -1 -38 -1 -8 -8 17 -4 34 -4
39 1 6 4 18 0 28 -9 11 -10 18 -11 18 -5 0 7 -4 12 -9 12 -5 0 -12 11 -15 24
-4 18 -11 23 -26 19 -16 -4 -19 -2 -14 11 3 9 4 16 1 16 -3 0 -7 -6 -9 -12z"/>
<path d="M1075 1049 c-9 -14 -2 -20 14 -10 8 6 9 11 3 15 -6 3 -14 1 -17 -5z"/>
<path d="M1134 1038 c4 -12 0 -17 -12 -16 -35 3 -62 -2 -62 -12 0 -5 7 -7 15
-4 11 5 13 2 9 -10 -3 -9 -1 -16 6 -16 6 0 8 5 5 10 -8 13 25 26 34 13 3 -6
17 -15 31 -22 l25 -12 -24 19 c-13 11 -21 23 -18 29 3 5 1 15 -5 23 -8 12 -9
12 -4 -2z"/>
<path d="M1190 1026 c0 -8 -6 -17 -12 -19 -8 -3 -8 -6 -2 -6 6 -1 19 8 29 19
16 18 16 20 2 20 -10 0 -17 -6 -17 -14z"/>
<path d="M710 1026 c0 -2 7 -9 15 -16 13 -11 14 -10 9 4 -5 14 -24 23 -24 12z"/>
<path d="M821 1016 c-9 -11 -5 -16 20 -25 18 -6 34 -9 37 -7 2 3 -8 8 -23 12
-26 7 -27 8 -10 20 15 12 16 14 3 14 -8 0 -21 -6 -27 -14z"/>
<path d="M1205 990 c-10 -11 -16 -22 -13 -25 3 -3 11 1 18 10 14 16 45 21 35
5 -3 -5 -1 -10 4 -10 18 0 12 18 -8 29 -14 8 -23 6 -36 -9z"/>
<path d="M1024 985 c-10 -8 -14 -15 -8 -15 6 0 17 7 24 15 16 19 9 19 -16 0z"/>
<path d="M709 983 c-1 -5 -2 -16 -3 -27 -1 -24 -28 -41 -51 -32 -14 5 -15 9
-5 21 7 8 8 15 2 15 -17 0 -31 -26 -25 -48 4 -18 10 -21 32 -16 32 7 71 48 71
75 0 18 -19 28 -21 12z"/>
<path d="M740 970 c0 -11 2 -20 4 -20 2 0 6 9 9 20 3 11 1 20 -4 20 -5 0 -9
-9 -9 -20z"/>
<path d="M786 976 c7 -18 -25 -49 -43 -42 -9 4 -13 1 -11 -6 8 -22 28 -19 53
8 28 30 33 54 10 54 -8 0 -12 -6 -9 -14z"/>
<path d="M905 960 c3 -11 3 -20 -2 -20 -4 0 -14 -9 -21 -20 -16 -26 -8 -25 18
2 21 23 27 58 9 58 -6 0 -8 -9 -4 -20z"/>
<path d="M1050 971 c0 -6 5 -13 10 -16 6 -3 10 1 10 9 0 9 -4 16 -10 16 -5 0
-10 -4 -10 -9z"/>
<path d="M1098 960 c-18 -21 -13 -26 11 -11 7 5 12 14 10 20 -3 7 -11 3 -21
-9z"/>
<path d="M1280 963 c0 -15 2 -16 10 -3 8 12 13 11 33 -9 17 -16 27 -19 32 -11
10 16 -3 27 -42 35 -28 6 -33 4 -33 -12z"/>
<path d="M870 953 c-8 -13 -13 -14 -16 -6 -9 22 -43 -3 -37 -27 4 -14 -2 -23
-21 -31 -14 -7 -26 -16 -26 -21 0 -13 16 -9 30 7 7 8 23 15 37 15 14 0 21 4
18 10 -4 6 -10 8 -15 5 -4 -3 -10 4 -13 15 -3 13 0 20 9 20 8 0 14 -4 14 -10
0 -17 19 -11 30 11 15 26 6 37 -10 12z"/>
<path d="M950 960 c0 -5 7 -10 16 -10 8 0 12 -4 9 -10 -3 -6 1 -7 9 -4 13 5
13 8 1 20 -16 16 -35 18 -35 4z"/>
<path d="M1020 946 c0 -2 7 -7 16 -10 8 -3 12 -2 9 4 -6 10 -25 14 -25 6z"/>
<path d="M1136 937 c3 -10 9 -15 12 -12 3 3 0 11 -7 18 -10 9 -11 8 -5 -6z"/>
<path d="M1198 943 c7 -3 16 -2 19 1 4 3 -2 6 -13 5 -11 0 -14 -3 -6 -6z"/>
<path d="M1243 939 c9 -6 15 -14 12 -20 -4 -5 -2 -9 4 -9 5 0 9 9 8 20 -1 13
-8 20 -22 20 -18 -1 -19 -1 -2 -11z"/>
<path d="M1165 930 c3 -5 11 -10 16 -10 6 0 7 5 4 10 -3 6 -11 10 -16 10 -6 0
-7 -4 -4 -10z"/>
<path d="M1314 927 c3 -10 6 -22 6 -26 0 -4 7 -8 15 -8 8 0 15 7 15 15 0 9 -3
12 -7 9 -3 -4 -12 1 -20 11 -14 16 -14 16 -9 -1z"/>
<path d="M927 912 c-10 -10 -14 -22 -10 -25 3 -4 13 2 21 14 18 26 10 35 -11
11z"/>
<path d="M1068 923 c-14 -3 -15 -7 -5 -18 12 -13 37 -3 37 16 0 9 -4 10 -32 2z"/>
<path d="M980 911 c0 -6 4 -13 10 -16 6 -3 7 1 4 9 -7 18 -14 21 -14 7z"/>
<path d="M1120 905 c0 -8 -6 -15 -13 -15 -8 0 -22 -8 -31 -19 -15 -17 -15 -19
-1 -25 9 -3 13 -2 10 4 -3 5 5 15 19 22 14 6 26 19 26 30 0 10 -2 18 -5 18 -3
0 -5 -7 -5 -15z"/>
<path d="M1195 911 c-6 -5 -19 -11 -30 -14 -11 -2 -3 -3 17 -2 21 2 39 -2 42
-9 3 -6 5 -2 3 8 -2 22 -18 30 -32 17z"/>
<path d="M560 900 c0 -5 5 -10 10 -10 6 0 10 5 10 10 0 6 -4 10 -10 10 -5 0
-10 -4 -10 -10z"/>
<path d="M715 900 c-3 -5 -1 -10 4 -10 6 0 11 5 11 10 0 6 -2 10 -4 10 -3 0
-8 -4 -11 -10z"/>
<path d="M1275 900 c-3 -5 -2 -10 4 -10 5 0 13 5 16 10 3 6 2 10 -4 10 -5 0
-13 -4 -16 -10z"/>
<path d="M963 886 c9 -7 17 -22 18 -32 0 -14 2 -15 6 -4 3 8 10 17 14 20 5 3
-6 11 -24 18 -27 10 -29 9 -14 -2z"/>
<path d="M1026 892 c-2 -4 0 -14 6 -22 8 -12 9 -12 5 2 -3 9 -1 19 6 22 9 3 9
5 0 5 -6 1 -14 -3 -17 -7z"/>
<path d="M671 877 c13 -12 99 -40 99 -31 0 6 -54 31 -84 38 -24 6 -26 5 -15
-7z"/>
<path d="M560 866 c0 -8 -7 -16 -15 -20 -8 -3 -15 -13 -15 -23 1 -14 5 -12 21
10 11 15 25 24 30 21 6 -4 6 -11 -1 -19 -8 -10 -8 -15 0 -20 7 -4 14 2 17 15
5 19 11 21 47 15 l41 -6 -34 16 c-25 11 -37 12 -47 4 -11 -9 -14 -8 -14 5 0 9
-7 16 -15 16 -8 0 -15 -6 -15 -14z"/>
<path d="M821 862 c-1 -19 -5 -22 -23 -16 -21 6 -21 6 -4 -11 21 -22 40 -8 33
26 l-4 24 -2 -23z"/>
<path d="M880 874 c0 -3 6 -12 14 -20 16 -15 81 -20 72 -5 -3 5 -18 9 -33 9
-15 0 -29 5 -31 11 -4 11 -22 16 -22 5z"/>
<path d="M1306 854 c-9 -8 -16 -13 -16 -10 0 3 -10 -5 -23 -17 -13 -12 -21
-26 -19 -30 2 -4 12 1 21 12 10 11 21 18 25 14 6 -6 46 30 46 42 0 10 -19 5
-34 -11z"/>
<path d="M1180 846 c11 -11 60 -15 60 -5 0 4 -16 9 -35 11 -23 3 -32 1 -25 -6z"/>
<path d="M863 830 c6 -10 15 -16 19 -14 14 9 9 22 -11 27 -17 4 -18 2 -8 -13z"/>
<path d="M1150 839 c0 -5 -5 -7 -12 -3 -7 4 -8 3 -4 -4 4 -6 13 -9 21 -6 8 4
12 10 9 15 -7 12 -14 11 -14 -2z"/>
<path d="M470 819 c0 -5 11 -9 25 -9 33 0 33 15 0 16 -14 1 -25 -2 -25 -7z"/>
<path d="M610 808 c-12 -22 -12 -22 6 -6 10 10 15 20 12 24 -4 3 -12 -5 -18
-18z"/>
<path d="M660 820 c0 -5 7 -10 15 -10 8 0 15 5 15 10 0 6 -7 10 -15 10 -8 0
-15 -4 -15 -10z"/>
<path d="M710 823 c0 -6 5 -15 10 -18 16 -10 1 -27 -18 -21 -21 7 -47 -8 -38
-22 4 -6 20 -4 44 8 20 9 44 20 52 23 11 4 10 6 -4 6 -10 1 -25 9 -32 19 -7 9
-14 12 -14 5z"/>
<path d="M770 821 c0 -13 39 -35 48 -27 3 3 0 6 -6 6 -6 0 -18 7 -26 16 -9 8
-16 11 -16 5z"/>
<path d="M1086 814 c-5 -14 -4 -15 9 -4 17 14 19 20 6 20 -5 0 -12 -7 -15 -16z"/>
<path d="M1210 820 c0 -5 5 -10 11 -10 5 0 7 5 4 10 -3 6 -8 10 -11 10 -2 0
-4 -4 -4 -10z"/>
<path d="M836 804 c-7 -19 -8 -49 -1 -42 7 7 17 58 11 58 -2 0 -7 -7 -10 -16z"/>
<path d="M956 812 c-3 -6 -1 -14 5 -17 14 -9 20 -2 10 14 -6 8 -11 9 -15 3z"/>
<path d="M885 800 c-3 -5 -2 -10 4 -10 5 0 13 5 16 10 3 6 2 10 -4 10 -5 0
-13 -4 -16 -10z"/>
<path d="M1110 800 c-9 -6 -10 -10 -3 -10 6 0 15 5 18 10 8 12 4 12 -15 0z"/>
<path d="M434 771 c1 -16 4 -27 9 -24 10 6 9 41 -2 47 -4 3 -8 -8 -7 -23z"/>
<path d="M514 790 c-25 -10 -37 -26 -41 -55 -3 -18 -2 -18 8 -2 6 10 22 17 40
17 18 0 28 4 24 10 -4 6 -11 8 -16 5 -5 -4 -9 -1 -9 4 0 11 13 15 39 12 7 -2
10 2 6 8 -7 13 -22 13 -51 1z"/>
<path d="M623 784 c-3 -8 -1 -20 4 -25 7 -7 11 -2 11 15 0 29 -6 33 -15 10z"/>
<path d="M1008 793 c-18 -5 -33 -33 -18 -33 6 0 10 5 10 10 0 6 6 10 14 10 8
0 18 5 21 10 6 10 2 11 -27 3z"/>
<path d="M1154 781 c20 -22 36 -27 36 -13 0 5 -12 14 -27 21 -28 13 -28 13 -9
-8z"/>
<path d="M1277 793 c-4 -3 -7 -11 -7 -17 0 -6 5 -4 11 4 7 11 8 1 3 -35 -6
-46 -5 -48 9 -31 8 11 13 27 12 35 -2 9 -4 24 -4 34 -1 17 -12 22 -24 10z"/>
<path d="M786 776 c4 -9 1 -16 -6 -16 -9 0 -9 -4 1 -16 12 -15 11 -16 -11 -10
-14 4 -20 4 -14 -1 6 -4 13 -14 15 -21 3 -9 9 -6 21 8 10 11 13 20 7 20 -6 0
-8 9 -4 19 3 11 1 22 -4 26 -7 3 -8 0 -5 -9z"/>
<path d="M930 779 c0 -5 5 -7 10 -4 6 3 10 8 10 11 0 2 -4 4 -10 4 -5 0 -10
-5 -10 -11z"/>
<path d="M572 755 c-6 -14 -9 -31 -6 -39 3 -8 -2 -16 -13 -19 -10 -2 -3 -4 15
-4 21 0 32 5 32 14 0 8 -4 12 -9 9 -16 -10 -20 21 -5 43 8 11 11 21 6 21 -5 0
-14 -11 -20 -25z"/>
<path d="M879 771 c7 -5 10 -14 7 -20 -4 -6 -11 -9 -15 -6 -12 7 -47 -22 -38
-31 4 -5 12 -2 16 5 5 7 13 11 18 8 5 -3 17 3 27 15 15 17 16 22 5 29 -8 5
-18 9 -24 9 -5 0 -4 -4 4 -9z"/>
<path d="M1040 770 c0 -5 5 -10 11 -10 5 0 7 5 4 10 -3 6 -8 10 -11 10 -2 0
-4 -4 -4 -10z"/>
<path d="M730 754 c0 -8 5 -12 10 -9 6 3 10 10 10 16 0 5 -4 9 -10 9 -5 0 -10
-7 -10 -16z"/>
<path d="M1113 756 c-13 -6 -23 -14 -23 -18 0 -9 69 -3 78 7 4 4 -3 4 -15 1
-18 -6 -22 -4 -17 8 3 9 5 15 3 15 -2 -1 -14 -6 -26 -13z"/>
<path d="M1204 757 c-5 -7 -13 -21 -17 -32 -6 -16 -3 -15 13 5 20 24 21 25 35
6 8 -11 17 -17 20 -14 5 5 -28 48 -36 48 -2 -1 -9 -6 -15 -13z"/>
<path d="M690 739 c0 -6 -6 -9 -13 -6 -14 5 -32 -7 -61 -41 -17 -20 -18 -22
-2 -22 9 0 15 4 11 9 -3 6 12 18 32 28 48 22 72 43 49 43 -9 0 -16 -5 -16 -11z"/>
<path d="M916 742 c-4 -7 -2 -12 3 -12 20 0 11 -18 -11 -25 -17 -4 -19 -8 -9
-12 8 -3 22 4 31 15 13 16 20 18 29 9 8 -8 11 -8 11 0 0 6 8 14 18 17 9 3 0 4
-20 3 -21 -2 -39 2 -41 7 -2 6 -6 5 -11 -2z"/>
<path d="M1014 728 c-3 -4 3 -8 12 -8 10 0 26 -7 36 -17 17 -15 18 -15 18 4 0
15 -8 22 -30 25 -17 3 -33 1 -36 -4z"/>
<path d="M428 725 c-10 -11 4 -45 23 -56 12 -6 19 -6 19 0 0 5 -6 12 -12 14
-7 3 1 6 17 6 22 1 26 4 15 10 -8 6 -18 7 -23 4 -4 -3 -14 2 -20 12 -7 9 -15
13 -19 10z"/>
<path d="M500 720 c0 -5 9 -10 21 -10 11 0 17 5 14 10 -3 6 -13 10 -21 10 -8
0 -14 -4 -14 -10z"/>
<path d="M711 709 c-13 -11 -18 -19 -10 -19 21 0 42 16 38 28 -2 6 -14 2 -28
-9z"/>
<path d="M985 710 c-3 -5 -1 -10 4 -10 6 0 11 5 11 10 0 6 -2 10 -4 10 -3 0
-8 -4 -11 -10z"/>
<path d="M806 701 c-3 -5 1 -12 10 -15 22 -8 25 -4 9 11 -8 7 -16 9 -19 4z"/>
<path d="M1105 700 c-3 -5 1 -10 9 -10 9 0 16 5 16 10 0 6 -4 10 -9 10 -6 0
-13 -4 -16 -10z"/>
<path d="M668 687 c-5 -10 -13 -15 -20 -12 -7 4 -4 -1 7 -9 19 -16 19 -16 -3
-32 -20 -14 -29 -64 -10 -64 13 0 18 18 6 22 -16 6 19 43 50 52 22 7 31 26 12
26 -5 0 -10 -4 -10 -10 0 -23 -19 -8 -22 18 -2 22 -4 24 -10 9z"/>
<path d="M1004 689 c-4 -8 1 -9 16 -4 15 5 20 4 16 -4 -4 -6 -3 -11 3 -11 17
0 21 18 5 24 -23 9 -32 7 -40 -5z"/>
<path d="M1186 681 c-10 -11 -16 -26 -13 -33 4 -9 6 -8 6 3 1 21 27 43 35 30
4 -5 2 -12 -4 -16 -16 -10 -12 -35 6 -35 8 0 12 5 9 10 -3 6 -1 10 5 10 17 0
7 44 -11 48 -8 1 -23 -6 -33 -17z"/>
<path d="M387 670 c3 -11 0 -26 -6 -33 -17 -21 -3 -27 32 -14 l32 11 -25 7
c-16 4 -19 7 -7 8 9 1 17 4 17 7 0 8 -32 33 -42 34 -3 0 -4 -9 -1 -20z"/>
<path d="M503 678 c-13 -6 -23 -14 -23 -19 0 -4 11 -2 25 4 14 7 25 15 25 20
0 8 1 9 -27 -5z"/>
<path d="M745 680 c-16 -7 -17 -9 -3 -9 9 -1 20 4 23 9 7 11 7 11 -20 0z"/>
<path d="M948 683 c7 -3 16 -2 19 1 4 3 -2 6 -13 5 -11 0 -14 -3 -6 -6z"/>
<path d="M1250 680 c0 -5 7 -10 15 -10 8 0 15 5 15 10 0 6 -7 10 -15 10 -8 0
-15 -4 -15 -10z"/>
<path d="M548 666 c-10 -7 -18 -17 -18 -21 0 -4 6 -2 14 4 7 6 21 9 30 5 9 -3
16 -1 16 6 0 6 -4 9 -9 6 -5 -4 -11 -2 -13 3 -1 5 -11 4 -20 -3z"/>
<path d="M876 664 c-9 -8 -13 -21 -9 -27 4 -7 8 -6 11 3 3 8 12 20 21 27 9 7
11 12 4 13 -6 0 -19 -7 -27 -16z"/>
<path d="M927 656 c-3 -8 0 -17 8 -20 9 -3 13 2 12 15 -2 22 -13 25 -20 5z"/>
<path d="M608 649 c-10 -5 -18 -18 -18 -27 1 -16 2 -16 14 1 7 9 18 17 25 17
6 0 11 5 11 10 0 13 -10 12 -32 -1z"/>
<path d="M1093 649 c14 -8 22 -8 30 0 8 8 3 11 -18 11 -26 -1 -28 -2 -12 -11z"/>
<path d="M500 642 c0 -6 6 -12 13 -15 9 -3 9 -9 -1 -26 -8 -14 -9 -21 -1 -21
6 0 13 9 16 20 4 13 14 20 32 20 22 1 24 2 8 11 -9 5 -22 7 -28 4 -5 -4 -16
-1 -24 5 -9 8 -15 8 -15 2z"/>
<path d="M723 636 c-4 -5 -1 -6 5 -2 6 4 20 3 29 -3 12 -6 24 -5 34 3 14 9 10
11 -23 11 -22 0 -42 -4 -45 -9z"/>
<path d="M1048 643 c7 -3 16 -2 19 1 4 3 -2 6 -13 5 -11 0 -14 -3 -6 -6z"/>
<path d="M813 626 c-28 -13 -29 -22 -3 -29 15 -4 20 0 20 13 0 10 6 21 13 23
6 3 8 5 2 5 -5 0 -20 -5 -32 -12z"/>
<path d="M1130 630 c0 -5 7 -7 15 -4 8 4 15 8 15 10 0 2 -7 4 -15 4 -8 0 -15
-4 -15 -10z"/>
<path d="M440 615 c-16 -19 0 -19 26 0 16 12 16 14 3 15 -9 0 -22 -7 -29 -15z"/>
<path d="M890 615 c-10 -12 -16 -13 -28 -3 -13 11 -14 11 -8 0 5 -8 1 -19 -10
-28 -17 -12 -15 -12 15 0 18 7 38 21 43 30 11 20 4 21 -12 1z"/>
<path d="M1180 625 c0 -5 5 -17 10 -25 5 -8 10 -10 10 -5 0 6 -5 17 -10 25 -5
8 -10 11 -10 5z"/>
<path d="M1100 613 c0 -6 5 -13 11 -15 6 -2 1 -14 -10 -27 -14 -15 -21 -19
-21 -10 0 11 -2 11 -8 1 -5 -8 -16 -10 -27 -6 -15 6 -17 4 -12 -10 5 -14 3
-17 -8 -12 -9 3 -15 0 -15 -8 0 -7 -13 -16 -30 -19 -20 -5 -28 -11 -24 -21 3
-8 1 -17 -5 -21 -6 -3 -11 1 -11 9 0 8 -4 17 -9 20 -5 4 -7 -3 -4 -14 3 -12 0
-20 -6 -20 -7 0 -9 -4 -6 -10 14 -23 65 1 65 30 0 6 4 9 9 6 5 -3 12 1 15 10
5 12 13 14 32 10 21 -6 25 -4 21 8 -3 8 1 20 9 26 11 10 14 10 14 -1 0 -8 8
-5 23 8 12 11 32 24 45 28 13 4 22 14 22 26 0 25 -17 25 -25 -1 -6 -20 -7 -20
-25 2 -11 13 -19 18 -20 11z"/>
<path d="M689 599 c-13 -4 -20 -7 -16 -8 17 -2 -15 -41 -33 -41 -11 0 -20 -4
-20 -9 0 -4 11 -6 25 -3 14 2 25 8 25 13 0 5 8 6 18 3 14 -5 15 -4 2 5 -13 10
-13 12 0 21 8 5 29 9 45 9 17 0 24 -3 18 -6 -7 -2 -13 -11 -13 -19 0 -19 27
-7 33 16 4 14 -2 19 -27 22 -18 2 -43 1 -57 -3z"/>
<path d="M960 603 c8 -3 22 -11 30 -17 13 -10 13 -9 1 7 -7 9 -21 17 -30 16
-13 0 -14 -1 -1 -6z"/>
<path d="M1050 600 c0 -5 5 -10 11 -10 5 0 7 5 4 10 -3 6 -8 10 -11 10 -2 0
-4 -4 -4 -10z"/>
<path d="M358 582 c-16 -17 -16 -18 2 -30 12 -7 20 -8 20 -2 0 12 29 2 52 -17
10 -9 22 -12 30 -7 9 6 6 10 -11 14 -38 9 -39 31 -2 24 21 -5 31 -3 31 6 0 7
-8 10 -20 7 -11 -3 -23 -1 -26 5 -4 6 -9 6 -14 -2 -5 -8 -15 -10 -26 -6 -16 6
-16 8 -4 16 13 9 13 10 0 9 -8 0 -23 -8 -32 -17z"/>
<path d="M575 590 c3 -5 11 -10 16 -10 6 0 7 5 4 10 -3 6 -11 10 -16 10 -6 0
-7 -4 -4 -10z"/>
<path d="M918 593 c7 -3 16 -2 19 1 4 3 -2 6 -13 5 -11 0 -14 -3 -6 -6z"/>
<path d="M537 538 c2 -30 0 -36 -12 -32 -8 4 -15 2 -15 -4 0 -5 6 -12 13 -14
20 -8 36 2 30 19 -5 12 -2 15 8 11 8 -3 20 1 28 9 12 13 10 14 -20 8 l-33 -7
17 25 c16 24 16 26 -1 24 -15 -1 -17 -8 -15 -39z"/>
<path d="M800 570 c0 -5 5 -10 11 -10 5 0 7 5 4 10 -3 6 -8 10 -11 10 -2 0 -4
-4 -4 -10z"/>
<path d="M490 545 c0 -6 -9 -21 -20 -33 -32 -34 -13 -26 25 11 28 27 30 33 14
33 -10 0 -19 -5 -19 -11z"/>
<path d="M578 553 c7 -3 16 -2 19 1 4 3 -2 6 -13 5 -11 0 -14 -3 -6 -6z"/>
<path d="M780 550 c0 -5 5 -10 11 -10 5 0 7 5 4 10 -3 6 -8 10 -11 10 -2 0 -4
-4 -4 -10z"/>
<path d="M337 543 c-25 -24 9 -62 40 -44 13 7 10 9 -10 15 -18 4 -24 11 -21
21 6 16 2 20 -9 8z"/>
<path d="M848 543 c7 -3 16 -2 19 1 4 3 -2 6 -13 5 -11 0 -14 -3 -6 -6z"/>
<path d="M724 532 c4 -7 3 -19 -4 -27 -8 -10 -8 -15 2 -21 7 -4 10 -4 6 1 -4
4 -3 14 4 22 8 11 8 17 -2 26 -10 9 -11 9 -6 -1z"/>
<path d="M755 530 c-3 -5 -1 -10 4 -10 6 0 11 5 11 10 0 6 -2 10 -4 10 -3 0
-8 -4 -11 -10z"/>
<path d="M936 531 c-4 -5 3 -7 14 -4 23 6 26 13 6 13 -8 0 -17 -4 -20 -9z"/>
<path d="M672 511 c7 -11 15 -18 20 -15 11 7 -3 34 -18 34 -12 0 -12 -4 -2
-19z"/>
<path d="M890 519 c0 -5 5 -7 10 -4 6 3 10 8 10 11 0 2 -4 4 -10 4 -5 0 -10
-5 -10 -11z"/>
<path d="M826 485 c-9 -19 -21 -35 -26 -35 -5 0 -10 -10 -12 -22 -2 -15 -9
-22 -20 -22 -10 1 -15 -2 -12 -7 11 -18 34 -8 40 16 3 14 13 25 21 25 8 0 12
4 8 9 -3 5 1 16 9 24 8 8 12 17 9 21 -4 3 1 6 11 6 9 0 14 5 11 10 -11 18 -22
11 -39 -25z"/>
<path d="M598 503 c7 -3 16 -2 19 1 4 3 -2 6 -13 5 -11 0 -14 -3 -6 -6z"/>
<path d="M768 502 c-10 -2 -18 -8 -18 -13 0 -6 7 -6 18 -1 9 5 23 7 30 5 6 -3
12 -1 12 5 0 9 -13 11 -42 4z"/>
<path d="M415 490 c-3 -5 -2 -10 4 -10 5 0 13 5 16 10 3 6 2 10 -4 10 -5 0
-13 -4 -16 -10z"/>
<path d="M330 465 c0 -20 5 -25 23 -24 19 1 19 2 3 6 -14 4 -16 7 -6 13 7 4 9
13 6 19 -12 19 -26 12 -26 -14z"/>
<path d="M610 480 c-13 -8 -13 -10 2 -10 9 0 19 -8 21 -17 3 -11 5 -7 6 10 1
29 -5 33 -29 17z"/>
<path d="M566 464 c-18 -18 -20 -24 -6 -24 5 0 14 9 20 20 13 24 7 26 -14 4z"/>
<path d="M690 469 c0 -5 5 -7 10 -4 6 3 10 8 10 11 0 2 -4 4 -10 4 -5 0 -10
-5 -10 -11z"/>
<path d="M466 461 c-4 -6 -2 -11 4 -11 6 0 8 -5 4 -12 -5 -8 0 -9 17 -4 13 4
29 8 36 8 6 1 9 8 6 15 -5 11 -9 11 -23 -2 -17 -15 -19 -15 -28 1 -6 11 -11
13 -16 5z"/>
<path d="M655 460 c-3 -5 1 -10 9 -10 9 0 16 5 16 10 0 6 -4 10 -9 10 -6 0
-13 -4 -16 -10z"/>
<path d="M730 462 c0 -6 -8 -13 -17 -15 -16 -4 -16 -5 -1 -6 18 -1 34 16 24
26 -3 4 -6 1 -6 -5z"/>
<path d="M421 451 c-1 -8 -7 -11 -16 -7 -9 3 -18 -1 -22 -10 -4 -11 -13 -14
-30 -9 -23 5 -24 4 -21 -37 3 -43 28 -75 48 -63 19 11 10 23 -12 18 -19 -5
-21 -3 -11 7 9 9 9 17 2 26 -7 8 -6 14 2 19 6 4 14 3 18 -2 3 -6 15 -7 26 -2
19 7 19 8 -2 8 -30 1 -29 15 1 29 18 8 26 8 29 -1 2 -6 6 -3 10 7 4 9 3 15 -2
11 -5 -3 -12 1 -14 7 -4 10 -6 10 -6 -1z"/>
<path d="M530 415 c-7 -8 -19 -15 -26 -15 -8 0 -14 -4 -14 -10 0 -17 15 -11
40 15 13 14 21 25 18 25 -3 0 -11 -7 -18 -15z"/>
<path d="M615 420 c3 -5 10 -10 16 -10 5 0 9 5 9 10 0 6 -7 10 -16 10 -8 0
-12 -4 -9 -10z"/>
<path d="M870 409 c7 -11 14 -19 16 -16 7 7 -7 37 -17 37 -6 0 -5 -9 1 -21z"/>
<path d="M460 411 c-8 -3 -16 -18 -18 -33 -3 -22 1 -28 15 -27 10 0 13 3 6 6
-18 7 -16 24 4 39 20 14 15 25 -7 15z"/>
<path d="M650 410 c0 -5 5 -10 11 -10 5 0 7 5 4 10 -3 6 -8 10 -11 10 -2 0 -4
-4 -4 -10z"/>
<path d="M900 401 c0 -6 5 -13 10 -16 6 -3 10 1 10 9 0 9 -4 16 -10 16 -5 0
-10 -4 -10 -9z"/>
<path d="M542 388 c-7 -7 -12 -20 -12 -30 0 -19 -15 -24 -25 -8 -8 13 -25 13
-25 1 0 -14 37 -24 52 -14 7 4 13 17 13 28 0 14 6 20 22 19 12 0 20 3 17 8 -7
12 -28 10 -42 -4z"/>
<path d="M595 366 c-9 -14 -15 -31 -12 -38 3 -8 6 -6 6 5 1 10 5 16 10 13 5
-4 20 -1 33 4 22 10 22 10 -4 5 -28 -5 -40 9 -15 18 6 2 9 8 5 11 -3 4 -14 -4
-23 -18z"/>
<path d="M696 364 c-4 -10 -1 -14 6 -12 15 5 23 28 10 28 -5 0 -13 -7 -16 -16z"/>
<path d="M740 370 c0 -5 5 -10 11 -10 5 0 7 5 4 10 -3 6 -8 10 -11 10 -2 0 -4
-4 -4 -10z"/>
<path d="M860 367 c0 -7 -12 -20 -27 -29 -19 -12 -23 -18 -11 -18 9 0 19 6 21
13 4 8 8 8 14 2 18 -22 32 -14 30 15 -2 28 -27 44 -27 17z"/>
<path d="M782 340 c-12 -19 -11 -20 8 -8 11 7 20 16 20 20 0 15 -15 8 -28 -12z"/>
<path d="M415 340 c3 -5 8 -10 11 -10 2 0 4 5 4 10 0 6 -5 10 -11 10 -5 0 -7
-4 -4 -10z"/>
<path d="M625 329 c-11 -16 -2 -17 25 -2 24 12 24 13 3 13 -12 0 -25 -5 -28
-11z"/>
<path d="M720 336 c0 -2 7 -6 15 -10 8 -3 15 -1 15 4 0 6 -7 10 -15 10 -8 0
-15 -2 -15 -4z"/>
<path d="M455 310 c-10 -11 -14 -20 -9 -20 5 0 17 9 27 20 9 11 13 20 8 20 -4
0 -16 -9 -26 -20z"/>
<path d="M700 320 c13 -9 13 -11 0 -19 -8 -6 -12 -12 -10 -15 3 -2 14 2 25 10
17 13 18 16 5 24 -8 5 -19 10 -25 10 -5 0 -3 -5 5 -10z"/>
<path d="M328 308 c-7 -18 39 -61 48 -46 4 6 0 16 -9 23 -10 7 -17 17 -17 24
0 15 -17 14 -22 -1z"/>
<path d="M393 295 c0 -16 6 -37 12 -45 14 -19 13 -45 -2 -45 -6 0 -15 -3 -19
-7 -4 -5 6 -8 23 -8 36 0 57 -21 48 -49 -6 -19 -3 -20 23 -15 24 5 32 2 41
-15 10 -18 41 -30 41 -17 0 15 -50 55 -62 51 -17 -7 -32 31 -17 41 5 3 9 10 9
16 0 7 -5 6 -15 -2 -11 -10 -18 -9 -30 3 -22 23 -19 25 30 23 25 -1 45 2 45 6
0 8 -2 9 -37 13 -13 1 -20 -2 -16 -8 4 -6 0 -8 -11 -4 -10 4 -22 7 -27 7 -5 0
-9 7 -9 15 0 8 -5 15 -11 15 -5 0 -7 5 -4 10 4 6 11 8 16 5 5 -4 9 -1 9 4 0 6
-6 11 -14 11 -8 0 -17 6 -19 13 -3 6 -5 -1 -4 -18z"/>
<path d="M643 305 c-14 -10 -24 -12 -28 -5 -4 6 -11 8 -16 5 -15 -10 -10 -22
9 -20 30 3 62 16 62 26 0 12 -2 12 -27 -6z"/>
<path d="M524 298 c-5 -7 -9 -20 -11 -28 -1 -11 2 -10 12 3 8 12 15 14 20 8 8
-14 35 -14 35 0 0 5 -5 7 -12 3 -6 -4 -17 1 -24 10 -9 14 -14 14 -20 4z"/>
<path d="M800 299 c-49 -7 -110 -35 -110 -50 0 -5 17 2 38 15 21 14 53 24 76
25 36 0 55 7 45 14 -2 2 -24 0 -49 -4z"/>
<path d="M480 275 c0 -8 2 -15 4 -15 2 0 6 7 10 15 3 8 1 15 -4 15 -6 0 -10
-7 -10 -15z"/>
<path d="M870 286 c0 -2 7 -9 15 -16 9 -7 15 -8 15 -2 0 5 -7 12 -15 16 -8 3
-15 4 -15 2z"/>
<path d="M665 270 c3 -5 8 -10 11 -10 2 0 4 5 4 10 0 6 -5 10 -11 10 -5 0 -7
-4 -4 -10z"/>
<path d="M826 265 c-3 -8 -1 -15 5 -15 6 0 17 -7 25 -15 17 -17 34 -20 34 -6
0 5 -9 13 -20 16 -11 3 -20 13 -20 21 0 19 -16 18 -24 -1z"/>
<path d="M571 246 c-9 -11 -7 -15 9 -19 17 -4 19 -3 10 8 -8 10 -7 14 2 18 8
3 8 6 2 6 -6 1 -17 -5 -23 -13z"/>
<path d="M621 250 c-8 -5 -1 -9 20 -13 42 -6 46 -3 16 10 -13 6 -30 8 -36 3z"/>
<path d="M750 250 c-13 -8 -13 -10 2 -10 9 0 20 5 23 10 8 13 -5 13 -25 0z"/>
<path d="M770 230 c-9 -6 -10 -10 -3 -10 6 0 15 5 18 10 8 12 4 12 -15 0z"/>
<path d="M616 204 c-21 -20 -20 -23 4 -17 11 3 20 12 20 19 0 18 -5 18 -24 -2z"/>
<path d="M820 205 c0 -8 -4 -15 -8 -15 -4 0 -8 -9 -8 -20 0 -26 22 -26 29 0 4
14 10 18 24 14 15 -6 14 -4 -4 15 -26 25 -33 26 -33 6z"/>
<path d="M505 200 c-3 -5 1 -10 9 -10 9 0 16 5 16 10 0 6 -4 10 -9 10 -6 0
-13 -4 -16 -10z"/>
<path d="M556 199 c3 -5 12 -9 21 -9 19 0 9 13 -12 16 -8 1 -13 -2 -9 -7z"/>
<path d="M666 197 c3 -9 15 -12 32 -10 25 4 26 3 10 -10 -10 -8 -18 -18 -18
-22 0 -5 9 0 20 10 23 21 18 29 -22 39 -21 5 -26 3 -22 -7z"/>
<path d="M753 193 c-21 -8 -15 -22 7 -16 18 5 20 2 16 -22 -3 -15 -2 -24 2
-21 4 4 7 21 8 37 1 28 -7 33 -33 22z"/>
<path d="M535 170 c3 -5 8 -10 11 -10 2 0 4 5 4 10 0 6 -5 10 -11 10 -5 0 -7
-4 -4 -10z"/>
<path d="M582 154 c-7 -8 -8 -14 -3 -14 10 0 25 19 20 25 -2 1 -10 -3 -17 -11z"/>
<path d="M620 140 c8 -5 20 -10 25 -10 6 0 3 5 -5 10 -8 5 -19 10 -25 10 -5 0
-3 -5 5 -10z"/>
<path d="M810 121 c0 -11 5 -23 10 -26 6 -3 10 -18 10 -31 0 -16 5 -24 13 -21
18 6 9 59 -14 80 -18 17 -19 17 -19 -2z"/>
<path d="M582 93 c-12 -12 -10 -13 11 -8 14 4 28 2 31 -3 7 -11 46 -4 46 8 0
5 -10 6 -22 2 -11 -3 -19 -1 -16 4 10 15 -36 13 -50 -3z"/>
<path d="M480 90 c0 -5 4 -10 9 -10 6 0 13 5 16 10 3 6 -1 10 -9 10 -9 0 -16
-4 -16 -10z"/>
<path d="M691 97 c2 -2 12 -9 22 -16 14 -11 17 -11 17 1 0 7 -10 14 -21 15
-12 1 -20 1 -18 0z"/>
<path d="M790 74 c0 -12 -10 -14 -50 -12 -27 2 -50 8 -50 13 0 6 -4 4 -9 -4
-6 -9 -19 -12 -37 -8 -17 3 -33 -1 -41 -9 -12 -12 2 -14 101 -14 103 0 140 8
104 23 -10 4 -9 8 2 16 13 9 13 11 -2 11 -10 0 -18 -7 -18 -16z"/>
</g>
</svg>
